<svg width="251" height="110" viewBox="0 0 251 110" fill="none" xmlns="http://www.w3.org/2000/svg">
<path d="M9.32134 14.2481C10.2299 12.8288 11.4836 11.6824 13.0826 10.8089C14.6816 9.93548 16.5531 9.49876 18.6972 9.49876C21.2047 9.49876 23.476 10.1356 25.511 11.4094C27.5461 12.6832 29.1451 14.5029 30.308 16.8685C31.5072 19.2341 32.1068 21.9818 32.1068 25.1117C32.1068 28.2415 31.5072 31.0074 30.308 33.4094C29.1451 35.775 27.5461 37.6129 25.511 38.9231C23.476 40.1969 21.2047 40.8337 18.6972 40.8337C16.5894 40.8337 14.7179 40.397 13.0826 39.5236C11.4836 38.6501 10.2299 37.5219 9.32134 36.139V54.9181H0V9.93548H9.32134V14.2481ZM22.622 25.1117C22.622 22.7825 21.9678 20.9628 20.6596 19.6526C19.3877 18.306 17.8069 17.6328 15.9171 17.6328C14.0638 17.6328 12.483 18.306 11.1747 19.6526C9.90279 20.9992 9.26683 22.8371 9.26683 25.1663C9.26683 27.4955 9.90279 29.3333 11.1747 30.6799C12.483 32.0265 14.0638 32.6998 15.9171 32.6998C17.7705 32.6998 19.3513 32.0265 20.6596 30.6799C21.9678 29.2969 22.622 27.4409 22.622 25.1117Z" fill="white"/>
<path d="M35.1437 25.1117C35.1437 21.9818 35.7251 19.2341 36.888 16.8685C38.0873 14.5029 39.7044 12.6832 41.7395 11.4094C43.7746 10.1356 46.0459 9.49876 48.5533 9.49876C50.6974 9.49876 52.569 9.93548 54.168 10.8089C55.8033 11.6824 57.057 12.8288 57.9292 14.2481V9.93548H67.2505V40.397H57.9292V36.0844C57.0207 37.5037 55.7488 38.6501 54.1134 39.5236C52.5145 40.397 50.6429 40.8337 48.4988 40.8337C46.0277 40.8337 43.7746 40.1969 41.7395 38.9231C39.7044 37.6129 38.0873 35.775 36.888 33.4094C35.7251 31.0074 35.1437 28.2415 35.1437 25.1117ZM57.9292 25.1663C57.9292 22.8371 57.2751 20.9992 55.9668 19.6526C54.6949 18.306 53.1323 17.6328 51.2789 17.6328C49.4255 17.6328 47.8447 18.306 46.5364 19.6526C45.2645 20.9628 44.6286 22.7825 44.6286 25.1117C44.6286 27.4409 45.2645 29.2969 46.5364 30.6799C47.8447 32.0265 49.4255 32.6998 51.2789 32.6998C53.1323 32.6998 54.6949 32.0265 55.9668 30.6799C57.2751 29.3333 57.9292 27.4955 57.9292 25.1663Z" fill="white"/>
<path d="M83.3155 14.2481C84.224 12.8288 85.4777 11.6824 87.0767 10.8089C88.6757 9.93548 90.5472 9.49876 92.6913 9.49876C95.1988 9.49876 97.4701 10.1356 99.5052 11.4094C101.54 12.6832 103.139 14.5029 104.302 16.8685C105.501 19.2341 106.101 21.9818 106.101 25.1117C106.101 28.2415 105.501 31.0074 104.302 33.4094C103.139 35.775 101.54 37.6129 99.5052 38.9231C97.4701 40.1969 95.1988 40.8337 92.6913 40.8337C90.5836 40.8337 88.712 40.397 87.0767 39.5236C85.4777 38.6501 84.224 37.5219 83.3155 36.139V54.9181H73.9941V9.93548H83.3155V14.2481ZM96.6161 25.1117C96.6161 22.7825 95.962 20.9628 94.6537 19.6526C93.3818 18.306 91.801 17.6328 89.9113 17.6328C88.0579 17.6328 86.4771 18.306 85.1688 19.6526C83.8969 20.9992 83.261 22.8371 83.261 25.1663C83.261 27.4955 83.8969 29.3333 85.1688 30.6799C86.4771 32.0265 88.0579 32.6998 89.9113 32.6998C91.7646 32.6998 93.3454 32.0265 94.6537 30.6799C95.962 29.2969 96.6161 27.4409 96.6161 25.1117Z" fill="white"/>
<path d="M124.837 40.8337C121.857 40.8337 119.168 40.1969 116.769 38.9231C114.407 37.6493 112.536 35.8296 111.155 33.464C109.81 31.0984 109.138 28.3325 109.138 25.1663C109.138 22.0364 109.828 19.2887 111.209 16.9231C112.59 14.5211 114.48 12.6832 116.878 11.4094C119.277 10.1356 121.966 9.49876 124.946 9.49876C127.926 9.49876 130.615 10.1356 133.014 11.4094C135.412 12.6832 137.302 14.5211 138.683 16.9231C140.064 19.2887 140.754 22.0364 140.754 25.1663C140.754 28.2961 140.045 31.062 138.628 33.464C137.247 35.8296 135.339 37.6493 132.905 38.9231C130.506 40.1969 127.817 40.8337 124.837 40.8337ZM124.837 32.7543C126.618 32.7543 128.126 32.0993 129.361 30.7891C130.633 29.4789 131.269 27.6046 131.269 25.1663C131.269 22.7279 130.651 20.8536 129.416 19.5434C128.217 18.2333 126.727 17.5782 124.946 17.5782C123.129 17.5782 121.621 18.2333 120.422 19.5434C119.222 20.8172 118.623 22.6915 118.623 25.1663C118.623 27.6046 119.204 29.4789 120.367 30.7891C121.566 32.0993 123.056 32.7543 124.837 32.7543Z" fill="white"/>
<path d="M155.397 25.1117C155.397 21.9818 155.979 19.2341 157.142 16.8685C158.341 14.5029 159.958 12.6832 161.993 11.4094C164.028 10.1356 166.3 9.49876 168.807 9.49876C170.806 9.49876 172.623 9.91728 174.258 10.7543C175.93 11.5914 177.238 12.7196 178.183 14.139V0H187.504V40.397H178.183V36.0298C177.311 37.4855 176.057 38.6501 174.422 39.5236C172.823 40.397 170.951 40.8337 168.807 40.8337C166.3 40.8337 164.028 40.1969 161.993 38.9231C159.958 37.6129 158.341 35.775 157.142 33.4094C155.979 31.0074 155.397 28.2415 155.397 25.1117ZM178.183 25.1663C178.183 22.8371 177.529 20.9992 176.221 19.6526C174.949 18.306 173.386 17.6328 171.533 17.6328C169.679 17.6328 168.098 18.306 166.79 19.6526C165.518 20.9628 164.882 22.7825 164.882 25.1117C164.882 27.4409 165.518 29.2969 166.79 30.6799C168.098 32.0265 169.679 32.6998 171.533 32.6998C173.386 32.6998 174.949 32.0265 176.221 30.6799C177.529 29.3333 178.183 27.4955 178.183 25.1663Z" fill="white"/>
<path d="M222.921 24.6749C222.921 25.5484 222.866 26.4582 222.757 27.4045H201.661C201.807 29.2969 202.406 30.7527 203.46 31.7717C204.55 32.7543 205.877 33.2457 207.439 33.2457C209.765 33.2457 211.382 32.263 212.291 30.2978H222.212C221.703 32.2994 220.776 34.1009 219.432 35.7022C218.124 37.3036 216.47 38.5591 214.471 39.469C212.473 40.3788 210.238 40.8337 207.767 40.8337C204.787 40.8337 202.134 40.1969 199.808 38.9231C197.482 37.6493 195.665 35.8296 194.357 33.464C193.049 31.0984 192.395 28.3325 192.395 25.1663C192.395 22 193.03 19.2341 194.302 16.8685C195.611 14.5029 197.428 12.6832 199.753 11.4094C202.079 10.1356 204.75 9.49876 207.767 9.49876C210.71 9.49876 213.327 10.1175 215.616 11.3548C217.906 12.5922 219.686 14.3573 220.958 16.6501C222.266 18.9429 222.921 21.6179 222.921 24.6749ZM213.381 22.2184C213.381 20.617 212.836 19.3433 211.746 18.397C210.656 17.4508 209.293 16.9777 207.658 16.9777C206.095 16.9777 204.768 17.4326 203.678 18.3424C202.624 19.2523 201.97 20.5443 201.716 22.2184H213.381Z" fill="white"/>
<path d="M38.8117 64.1985C42.5911 64.1985 45.5892 65.3449 47.806 67.6377C50.0591 69.9305 51.1856 73.115 51.1856 77.1911V94.9876H41.9188V78.4466C41.9188 76.4814 41.3919 74.971 40.338 73.9156C39.3204 72.8238 37.9032 72.2779 36.0861 72.2779C34.2691 72.2779 32.8337 72.8238 31.7798 73.9156C30.7623 74.971 30.2535 76.4814 30.2535 78.4466V94.9876H20.9867V78.4466C20.9867 76.4814 20.4597 74.971 19.4058 73.9156C18.3883 72.8238 16.971 72.2779 15.154 72.2779C13.337 72.2779 11.9015 72.8238 10.8476 73.9156C9.83011 74.971 9.32134 76.4814 9.32134 78.4466V94.9876H0V64.5261H9.32134V68.3474C10.2662 67.0736 11.5018 66.0728 13.0281 65.3449C14.5544 64.5806 16.2806 64.1985 18.2066 64.1985C20.4961 64.1985 22.5311 64.6898 24.3118 65.6725C26.1288 66.6551 27.5461 68.0562 28.5636 69.8759C29.6175 68.2018 31.053 66.8371 32.87 65.7816C34.687 64.7262 36.6676 64.1985 38.8117 64.1985Z" fill="white"/>
<path d="M55.8514 79.7022C55.8514 76.5724 56.4329 73.8246 57.5957 71.4591C58.795 69.0935 60.4121 67.2738 62.4472 66C64.4823 64.7262 66.7536 64.0893 69.2611 64.0893C71.4051 64.0893 73.2767 64.5261 74.8757 65.3995C76.511 66.2729 77.7647 67.4194 78.6369 68.8387V64.5261H87.9583V94.9876H78.6369V90.6749C77.7284 92.0943 76.4565 93.2407 74.8212 94.1141C73.2222 94.9876 71.3506 95.4243 69.2065 95.4243C66.7354 95.4243 64.4823 94.7874 62.4472 93.5136C60.4121 92.2035 58.795 90.3656 57.5957 88C56.4329 85.598 55.8514 82.8321 55.8514 79.7022ZM78.6369 79.7568C78.6369 77.4276 77.9828 75.5897 76.6745 74.2432C75.4026 72.8966 73.84 72.2233 71.9866 72.2233C70.1332 72.2233 68.5524 72.8966 67.2442 74.2432C65.9722 75.5534 65.3363 77.373 65.3363 79.7022C65.3363 82.0314 65.9722 83.8875 67.2442 85.2705C68.5524 86.617 70.1332 87.2903 71.9866 87.2903C73.84 87.2903 75.4026 86.617 76.6745 85.2705C77.9828 83.9239 78.6369 82.086 78.6369 79.7568Z" fill="white"/>
<path d="M104.023 54.5906V94.9876H94.7018V54.5906H104.023Z" fill="white"/>
<path d="M140.814 64.5261V94.9876H131.492V90.8387C130.547 92.1853 129.257 93.2771 127.622 94.1141C126.023 94.9148 124.242 95.3151 122.28 95.3151C119.954 95.3151 117.901 94.8056 116.12 93.7866C114.34 92.7312 112.959 91.2208 111.977 89.2556C110.996 87.2903 110.506 84.9793 110.506 82.3226V64.5261H119.773V81.067C119.773 83.105 120.299 84.6882 121.353 85.8164C122.407 86.9446 123.824 87.5087 125.605 87.5087C127.422 87.5087 128.858 86.9446 129.912 85.8164C130.965 84.6882 131.492 83.105 131.492 81.067V64.5261H140.814Z" fill="white"/>
<path d="M166.043 64.1985C169.604 64.1985 172.439 65.3631 174.546 67.6923C176.691 69.9851 177.763 73.1514 177.763 77.1911V94.9876H168.496V78.4466C168.496 76.4086 167.969 74.8255 166.915 73.6973C165.861 72.5691 164.444 72.005 162.663 72.005C160.882 72.005 159.465 72.5691 158.411 73.6973C157.357 74.8255 156.83 76.4086 156.83 78.4466V94.9876H147.509V64.5261H156.83V68.5658C157.775 67.2192 159.047 66.1638 160.646 65.3995C162.245 64.5988 164.044 64.1985 166.043 64.1985Z" fill="white"/>
<path d="M195.796 64.0893C197.94 64.0893 199.812 64.5261 201.411 65.3995C203.046 66.2729 204.3 67.4194 205.172 68.8387V64.5261H214.494V94.933C214.494 97.7353 213.93 100.265 212.804 102.521C211.713 104.814 210.024 106.634 207.734 107.98C205.481 109.327 202.665 110 199.285 110C194.779 110 191.127 108.926 188.328 106.779C185.53 104.668 183.931 101.793 183.531 98.1538H192.744C193.034 99.3184 193.725 100.228 194.815 100.883C195.905 101.575 197.25 101.921 198.849 101.921C200.775 101.921 202.301 101.356 203.428 100.228C204.591 99.1365 205.172 97.3714 205.172 94.933V90.6203C204.264 92.0397 203.01 93.2043 201.411 94.1141C199.812 94.9876 197.94 95.4243 195.796 95.4243C193.289 95.4243 191.018 94.7874 188.982 93.5136C186.947 92.2035 185.33 90.3656 184.131 88C182.968 85.598 182.387 82.8321 182.387 79.7022C182.387 76.5724 182.968 73.8246 184.131 71.4591C185.33 69.0935 186.947 67.2738 188.982 66C191.018 64.7262 193.289 64.0893 195.796 64.0893ZM205.172 79.7568C205.172 77.4276 204.518 75.5897 203.21 74.2432C201.938 72.8966 200.375 72.2233 198.522 72.2233C196.669 72.2233 195.088 72.8966 193.779 74.2432C192.508 75.5534 191.872 77.373 191.872 79.7022C191.872 82.0314 192.508 83.8875 193.779 85.2705C195.088 86.617 196.669 87.2903 198.522 87.2903C200.375 87.2903 201.938 86.617 203.21 85.2705C204.518 83.9239 205.172 82.086 205.172 79.7568Z" fill="white"/>
<path d="M235.083 95.4243C232.103 95.4243 229.414 94.7874 227.015 93.5136C224.653 92.2399 222.782 90.4202 221.401 88.0546C220.056 85.689 219.384 82.9231 219.384 79.7568C219.384 76.627 220.074 73.8792 221.455 71.5136C222.836 69.1117 224.726 67.2738 227.124 66C229.523 64.7262 232.212 64.0893 235.192 64.0893C238.172 64.0893 240.861 64.7262 243.259 66C245.658 67.2738 247.548 69.1117 248.929 71.5136C250.31 73.8792 251 76.627 251 79.7568C251 82.8867 250.291 85.6526 248.874 88.0546C247.493 90.4202 245.585 92.2399 243.15 93.5136C240.752 94.7874 238.063 95.4243 235.083 95.4243ZM235.083 87.3449C236.864 87.3449 238.372 86.6898 239.607 85.3796C240.879 84.0695 241.515 82.1952 241.515 79.7568C241.515 77.3185 240.897 75.4442 239.662 74.134C238.463 72.8238 236.973 72.1687 235.192 72.1687C233.375 72.1687 231.867 72.8238 230.667 74.134C229.468 75.4078 228.869 77.2821 228.869 79.7568C228.869 82.1952 229.45 84.0695 230.613 85.3796C231.812 86.6898 233.302 87.3449 235.083 87.3449Z" fill="white"/>
<path d="M141.346 25.6576C141.346 34.7024 134.025 42.0347 124.993 42.0347C115.962 42.0347 108.64 34.7024 108.64 25.6576C108.64 16.6127 115.962 9.2804 124.993 9.2804C134.025 9.2804 141.346 16.6127 141.346 25.6576Z" fill="#FF0000"/>
</svg>
