<svg width="512" height="512" viewBox="0 0 512 512" fill="none" xmlns="http://www.w3.org/2000/svg">
<path d="M390.644 100.42C394.168 103.539 397.593 106.754 401 110C401.779 110.726 402.558 111.451 403.36 112.199C418.083 126.322 429.563 144.027 439 162C439.345 162.654 439.689 163.308 440.043 163.982C454.743 192.396 461.472 223.78 461.313 255.625C461.311 256.41 461.309 257.194 461.306 258.003C461.057 314.861 437.434 364.41 398.313 404.938C392.315 410.862 385.76 415.982 379 421C378.46 421.401 377.92 421.802 377.363 422.215C368.674 428.593 359.533 433.995 350 439C349.346 439.344 348.692 439.688 348.018 440.043C319.579 454.756 288.185 461.467 256.313 461.312C255.527 461.311 254.742 461.309 253.933 461.307C241.406 461.258 229.293 460.572 217 458C216.145 457.828 215.29 457.657 214.409 457.48C199.482 454.426 185.111 450.052 171.426 443.293C170.49 442.831 169.555 442.369 168.59 441.893C166.784 440.987 164.988 440.061 163.204 439.113C162.38 438.694 161.556 438.275 160.708 437.844C159.632 437.274 159.632 437.274 158.535 436.693C152.225 434.967 144.859 437.67 138.695 439.317C137.801 439.551 136.907 439.785 135.986 440.026C134.06 440.532 132.134 441.04 130.208 441.55C127.163 442.357 124.115 443.158 121.068 443.958C115.703 445.366 110.341 446.779 104.978 448.194C96.3784 450.464 87.7773 452.729 79.1743 454.987C76.1694 455.777 73.1657 456.571 70.162 457.366C68.3279 457.849 66.4937 458.331 64.6594 458.813C63.8225 459.036 62.9856 459.258 62.1233 459.488C59.0066 460.303 56.2367 461 53.0005 461C53.5897 455.071 54.8025 449.684 56.5359 443.992C57.0678 442.205 57.5994 440.417 58.1306 438.63C58.4111 437.693 58.6916 436.756 58.9806 435.79C60.4718 430.779 61.9158 425.754 63.3657 420.73C65.2047 414.359 67.0578 407.994 68.9778 401.647C70.5342 396.497 72.0325 391.333 73.4939 386.155C74.0575 384.197 74.6415 382.245 75.247 380.3C79.2838 367.687 79.2838 367.687 76.5849 355.137C74.883 351.974 72.9637 349.008 71.0005 346C70.0401 344.006 69.1113 341.996 68.2427 339.961C67.8477 339.043 67.4526 338.124 67.0456 337.178C59.7176 319.625 54.6758 301.843 52.0005 283C51.8161 281.711 51.6318 280.422 51.4419 279.094C45.6661 224.592 61.2815 169.862 95.6255 127.125C106.975 113.638 118.845 101.507 133 91C133.541 90.5989 134.081 90.1979 134.638 89.7847C143.327 83.4072 152.468 78.0054 162 73C162.655 72.6558 163.309 72.3116 163.983 71.957C184.447 61.3702 206.31 55.5072 229 52C230.063 51.832 230.063 51.832 231.147 51.6606C288.21 43.9737 347.394 63.032 390.644 100.42ZM165.008 175.613C159.461 183.839 155.712 193.034 155 203C154.937 203.834 154.874 204.668 154.809 205.527C153.422 238.873 179.361 269.944 200.5 293.125C228.622 323.543 268.825 349.473 311.481 351.534C326.134 351.738 340.035 346.057 350.563 335.875C357.87 328.301 359.945 318.896 360.75 308.625C360.828 307.689 360.905 306.753 360.985 305.789C358.805 299.612 351.093 296.972 345.547 294.219C343.619 293.305 341.686 292.399 339.75 291.5C338.74 291.025 337.729 290.55 336.688 290.061C334.694 289.125 332.699 288.192 330.702 287.263C328.402 286.188 326.111 285.097 323.825 283.992C322.707 283.459 321.589 282.925 320.438 282.375C319.044 281.706 319.044 281.706 317.622 281.023C314.587 279.838 312.278 279.043 309 279C306.312 281.025 306.312 281.025 304 284C303.106 285.029 302.212 286.057 301.317 287.086C300.397 288.181 299.479 289.277 298.563 290.375C298.079 290.946 297.596 291.516 297.097 292.104C295.077 294.491 293.093 296.878 291.2 299.367C288.921 302.327 287.504 303.859 283.856 304.879C278.98 305.032 275.903 303.756 271.563 301.688C270.78 301.324 269.997 300.961 269.191 300.587C244.205 288.683 217.511 267.496 207 241C207.091 236.454 209.272 234.091 212.188 230.75C216.502 225.631 216.502 225.631 220.563 220.312C221.276 219.348 221.276 219.348 222.004 218.363C224.018 213.586 223.444 208.671 221.703 203.914C221.115 202.478 220.512 201.049 219.895 199.625C219.574 198.856 219.253 198.087 218.922 197.295C218.244 195.679 217.558 194.066 216.866 192.455C215.819 190.013 214.794 187.562 213.772 185.109C213.106 183.531 212.439 181.953 211.77 180.375C211.468 179.654 211.165 178.933 210.854 178.19C206.704 168.068 206.704 168.068 199 161C196.117 160.705 193.501 160.581 190.625 160.625C189.512 160.608 189.512 160.608 188.375 160.59C177.586 160.647 171.247 167.43 165.008 175.613Z" fill="white"/>
</svg>
