<svg width="430" height="425" viewBox="0 0 430 425" fill="none" xmlns="http://www.w3.org/2000/svg">
<path d="M357.481 52.7931C398.822 90.0686 425.471 142.534 428.872 198.401C431.929 260.046 411.038 315.502 370.001 361C363.495 367.985 356.499 374.107 349.001 380C347.487 381.222 347.487 381.222 345.942 382.469C338.055 388.769 329.788 394.048 321.001 399C320.346 399.375 319.691 399.75 319.017 400.137C304.248 408.552 288.655 414.494 272.376 419.313C271.234 419.658 271.234 419.658 270.07 420.011C261.103 422.54 252.373 423.52 243.001 425C243.001 373.52 243.001 322.04 243.001 269C264.286 268.505 264.286 268.505 286.001 268C295.224 263.407 295.224 263.407 299.626 255C302.651 245.01 305.26 233.287 300.251 223.625C296.244 218.951 292.129 215.399 285.817 214.789C283.1 214.673 280.388 214.619 277.668 214.586C276.181 214.557 276.181 214.557 274.663 214.527C271.505 214.468 268.347 214.421 265.188 214.375C263.043 214.337 260.898 214.298 258.752 214.258C253.502 214.162 248.251 214.077 243.001 214C242.95 208.987 242.914 203.974 242.891 198.961C242.881 197.262 242.867 195.563 242.85 193.864C242.487 157.699 242.487 157.699 255.696 144.035C261.957 138.506 269.363 137.981 277.421 137.813C285.36 137.6 292.63 137.305 299.001 132C303.701 126.638 306.54 120.914 307.376 113.813C306.543 105.345 303.953 98.9516 297.391 93.4376C291.406 89.8387 285.83 88.5413 278.907 88.6017C278.157 88.5988 277.407 88.5959 276.635 88.593C275.055 88.591 273.475 88.5964 271.895 88.609C269.534 88.6249 267.174 88.6092 264.813 88.59C242.388 88.5571 222.26 93.5564 205.376 109.063C185.11 130.187 184.559 160.133 184.313 187.563C184.28 190.135 184.245 192.707 184.209 195.279C184.125 201.52 184.057 207.76 184.001 214C182.254 214.022 182.254 214.022 180.471 214.044C176.116 214.103 171.76 214.18 167.405 214.263C165.527 214.296 163.648 214.324 161.769 214.347C159.056 214.38 156.343 214.433 153.629 214.488C152.387 214.498 152.387 214.498 151.119 214.508C142.292 214.726 135.201 216.935 128.727 223.035C124.006 228.408 122.29 234.237 121.751 241.25C122.301 249.502 125.381 255.956 131.001 262C145.274 273.54 168.242 268.606 184.001 269C184.001 320.15 184.001 371.3 184.001 424C171.601 422.873 171.601 422.873 167.563 421.836C166.206 421.489 166.206 421.489 164.822 421.136C163.891 420.885 162.96 420.634 162.001 420.375C161.005 420.109 160.01 419.844 158.984 419.57C130.535 411.772 103.783 398.849 81.0005 380C80.4285 379.53 79.8565 379.059 79.2671 378.574C67.3571 368.724 56.4697 358.273 47.0005 346C46.5727 345.449 46.1449 344.897 45.7041 344.329C10.9921 299.305 -4.26213 242.847 2.25051 186.414C7.26527 148 22.247 110.955 47.0005 81.0001C47.8268 79.9714 48.6531 78.9428 49.5044 77.8829C60.7728 64.0313 73.4713 51.4042 88.0005 41.0001C88.6568 40.5265 89.3131 40.053 89.9893 39.5651C165.365 -14.2342 266.933 -14.2789 357.481 52.7931Z" fill="white"/>
</svg>
