<svg width="264" height="264" viewBox="0 0 264 264" fill="none" xmlns="http://www.w3.org/2000/svg">
<path d="M214.339 29.3602C217.268 31.861 220.144 34.4157 222.999 37.0001C223.763 37.691 224.528 38.382 225.315 39.0939C248.474 61.1764 262.238 93.3728 263.202 125.207C263.729 162.961 252.383 196.583 225.925 224.039C201.895 248.498 170.099 262.629 135.764 263.356C97.3084 263.585 64.5906 250.27 36.9363 223.313C11.7446 198.048 0.737163 163.802 0.750011 128.731C0.846223 119.228 1.81415 110.242 3.99879 101C4.16508 100.29 4.33137 99.5789 4.5027 98.8468C11.9926 68.069 33.1316 37.8273 60.1902 21.2071C108.207 -7.03883 170.406 -7.38316 214.339 29.3602ZM88.1902 78.3829C87.3912 78.4133 86.5922 78.4436 85.769 78.4749C77.8333 78.8756 69.0213 79.3977 62.9988 85.0001C54.1444 97.2192 54.4998 114.935 54.6077 129.384C54.6238 131.933 54.6077 134.48 54.5886 137.029C54.5764 145.365 54.974 153.512 56.2722 161.754C56.3801 162.468 56.4879 163.182 56.599 163.918C57.734 170.332 59.9461 176.485 64.9363 180.875C81.7976 191.321 114.137 186.206 133.186 186.188C134.334 186.187 135.481 186.186 136.663 186.186C150.35 186.166 164.021 186.075 177.686 185.25C178.828 185.188 179.97 185.127 181.146 185.063C188.853 184.493 196.528 183.115 202.436 177.813C209.514 165.072 209.333 149.837 209.26 135.642C209.249 133.201 209.259 130.76 209.272 128.318C209.28 120.37 209.005 112.53 208.096 104.629C208.017 103.936 207.938 103.243 207.857 102.53C206.833 94.5259 204.459 88.1086 197.999 83.0001C190.507 79.1152 182.768 78.813 174.503 78.4454C173.559 78.4034 172.614 78.3613 171.642 78.318C159.433 77.831 147.219 77.849 135.003 77.8697C131.613 77.8754 128.223 77.872 124.833 77.8663C112.615 77.8487 100.399 77.8646 88.1902 78.3829Z" fill="#FDFDFD"/>
</svg>
