<svg width="412" height="412" viewBox="0 0 412 412" fill="none" xmlns="http://www.w3.org/2000/svg">
<path d="M205.252 0.750092C206.055 0.749417 206.858 0.748742 207.685 0.748047C220.354 0.764935 232.567 1.39853 245.002 4.00009C246.284 4.2575 246.284 4.2575 247.593 4.52011C300.565 15.3586 347.715 47.4263 377.635 92.4591C384.693 103.511 390.916 114.912 396.002 127C396.304 127.714 396.607 128.428 396.918 129.163C400.982 138.948 403.899 148.876 406.314 159.188C406.678 160.735 406.678 160.735 407.049 162.314C410.267 176.768 411.386 190.934 411.314 205.688C411.311 206.866 411.311 206.866 411.309 208.068C411.26 220.6 410.553 232.7 408.002 245C407.841 245.829 407.68 246.657 407.514 247.511C402.185 274.509 391.214 300.705 375.002 323C374.284 324.002 373.566 325.003 372.826 326.035C367.922 332.735 362.629 338.905 357.002 345C355.481 346.729 353.96 348.458 352.439 350.188C348.54 354.501 344.491 358.314 340.002 362C339.516 362.415 339.029 362.829 338.529 363.256C310.106 387.484 276.491 402.036 240.002 409C239.318 409.133 238.635 409.266 237.931 409.402C215.412 413.526 189.349 412.529 167.002 408C165.593 407.718 165.593 407.718 164.156 407.43C137.246 401.827 111.387 391.025 89.0017 375C87.4915 373.919 87.4915 373.919 85.9509 372.816C80.1645 368.574 74.7065 364.113 69.4353 359.246C67.8011 357.738 66.1469 356.251 64.4743 354.785C32.5413 326.789 12.2759 286.232 4.00168 245C3.83651 244.211 3.67135 243.421 3.50119 242.608C-1.36929 218.487 -1.03056 191.052 4.00168 167C4.17328 166.145 4.34489 165.29 4.5217 164.409C15.3602 111.437 47.4279 64.2868 92.4607 34.3663C126.747 12.4705 164.512 0.780837 205.252 0.750092ZM90.7517 129.438C89.2973 129.709 89.2973 129.709 87.8134 129.986C80.3221 131.538 74.4664 134.042 69.5017 140C66.4482 146.175 67.0775 154.125 69.1267 160.5C71.8372 164.114 74.9165 166.957 79.0017 169C87.6825 169.812 95.8175 168.04 104.252 166.188C113.67 164.194 123.069 162.396 132.627 161.188C133.506 161.076 134.386 160.965 135.292 160.85C137.86 160.542 140.429 160.265 143.002 160C144.284 159.859 144.284 159.859 145.592 159.714C190.954 155.255 237.778 160.803 281.002 175C282.197 175.388 282.197 175.388 283.416 175.783C291.549 178.466 299.357 181.643 307.088 185.332C307.708 185.627 308.329 185.922 308.969 186.226C312.067 187.701 315.152 189.198 318.221 190.733C325.433 194.229 331.202 196.776 339.219 194.321C345.122 192.048 348.38 187.605 351.002 182C352.491 177.301 352.52 173.427 350.564 168.875C345.926 161.166 338.553 156.778 330.564 153.125C329.661 152.705 328.758 152.285 327.827 151.852C253.947 118.284 169.572 113.999 90.7517 129.438ZM87.4392 202.563C86.4782 203.462 86.4782 203.462 85.4978 204.379C82.2222 207.928 82.6699 211.615 82.7243 216.238C83.2487 221.46 85.8813 223.986 89.6267 227.375C96.4871 230.678 102.56 229.213 109.689 227.25C168.496 211.547 237.985 219.798 291.17 248.922C292.446 249.616 293.723 250.309 295.002 251C295.695 251.375 296.389 251.75 297.103 252.137C302.267 254.839 306.145 256.045 312.002 255C317.571 252.43 320.37 248.367 323.002 243C324.402 239.045 324.141 236.748 322.502 233C318.68 225.094 309.934 221 302.502 217.188C301.498 216.67 300.495 216.152 299.462 215.619C288.931 210.294 278.109 205.959 267.002 202C266.214 201.714 265.427 201.429 264.616 201.134C225.502 187.131 122.256 168.909 87.4392 202.563ZM131.002 256C129.683 256.228 128.364 256.455 127.045 256.683C122.775 257.426 118.512 258.205 114.252 259C113.572 259.125 112.892 259.251 112.192 259.38C110.257 259.742 108.324 260.121 106.392 260.5C105.279 260.717 104.165 260.933 103.018 261.156C98.5353 262.41 95.7668 263.839 93.1892 267.75C91.8085 271.529 91.5022 274.004 92.0017 278C94.255 282.34 96.4553 285.097 101.002 287C106.007 287.232 110.575 286.679 115.49 285.758C116.923 285.494 118.356 285.231 119.789 284.967C120.528 284.829 121.267 284.691 122.028 284.549C174.229 274.865 229.226 275.963 276.154 303.875C281.846 307.382 281.846 307.382 288.314 308.188C293.658 306.467 296.422 304.053 299.877 299.563C301.28 296.367 301.496 294.463 301.002 291C291.253 272.947 261.153 266.601 242.642 261.032C233.55 258.454 224.336 256.465 215.002 255C213.842 254.817 212.682 254.634 211.487 254.445C200.339 252.861 189.312 252.641 178.064 252.688C176.642 252.691 176.642 252.691 175.191 252.694C160.269 252.748 145.723 253.405 131.002 256Z" fill="white"/>
</svg>
