<svg width="753" height="752" viewBox="0 0 753 752" fill="none" xmlns="http://www.w3.org/2000/svg">
<path d="M378.126 0.749972C379.133 0.744796 380.14 0.739619 381.177 0.734286C451.152 0.451105 520.1 21.3495 579.001 59C580.101 59.6819 581.2 60.3638 582.333 61.0664C599.86 72.0032 615.516 85.1247 630.775 98.9922C632.824 100.84 634.905 102.642 637.001 104.437C644.631 111.115 651.417 118.317 657.736 126.238C659.979 128.973 662.332 131.545 664.751 134.125C675.947 146.344 685.293 159.937 694.001 174C694.382 174.61 694.763 175.22 695.155 175.848C697.853 180.185 700.454 184.573 703.001 189C703.456 189.789 703.911 190.579 704.38 191.392C719.943 218.623 732.079 247.647 740.001 278C740.219 278.818 740.436 279.637 740.66 280.48C743.568 291.532 745.763 302.675 747.689 313.937C747.891 315.102 748.094 316.267 748.302 317.467C751.296 335.67 752.338 353.844 752.262 372.276C752.251 375.367 752.262 378.456 752.275 381.547C752.292 405.553 750.401 429.57 745.001 453C744.665 454.519 744.329 456.039 743.993 457.559C737.659 485.534 728.791 513.277 716.001 539C715.357 540.324 714.714 541.648 714.072 542.973C700.16 571.453 682.057 598.291 661.001 622C660.383 622.704 659.765 623.408 659.128 624.134C653.244 630.77 647.088 637.1 640.818 643.368C639.13 645.059 637.45 646.757 635.771 648.455C629.173 655.088 622.39 661.239 615.001 667C614.299 667.556 613.597 668.112 612.873 668.685C586.46 689.488 558.761 707.083 527.799 720.236C526.195 720.917 524.596 721.608 522.997 722.301C520.014 723.575 517.015 724.798 514.001 726C513.055 726.378 513.055 726.378 512.09 726.764C483.981 737.876 454.029 745.471 424.001 749C423.119 749.104 422.237 749.209 421.328 749.316C405.995 751.023 390.662 751.206 375.251 751.25C374.313 751.255 373.375 751.261 372.409 751.266C352.511 751.352 333.022 749.697 313.439 746.188C312.689 746.055 311.939 745.923 311.166 745.786C277.836 739.893 244.555 730.416 214.388 714.754C211.453 713.234 208.489 711.799 205.506 710.375C186.08 700.993 166.772 689.071 149.943 675.531C147.993 673.994 145.987 672.589 143.939 671.188C142.969 670.466 142 669.744 141.001 669C141.001 668.34 141.001 667.68 141.001 667C140.469 666.774 139.936 666.549 139.388 666.316C127.895 659.977 118.369 648.576 109.126 639.375C108.593 638.847 108.06 638.319 107.51 637.775C100.533 630.851 94.1208 623.707 88.0013 616C87.138 614.972 86.2696 613.949 85.3919 612.934C72.9023 598.37 62.5901 582.582 53.0013 566C52.2646 564.741 51.5277 563.482 50.7903 562.223C43.4218 549.51 36.3239 536.715 31.0013 523C30.2938 521.225 29.5854 519.45 28.8763 517.676C24.5838 506.886 20.3977 496.11 17.0013 485C16.7006 484.023 16.7006 484.023 16.3938 483.027C10.3558 463.168 6.59579 442.576 4.00126 422C3.89684 421.223 3.79243 420.447 3.68485 419.646C-0.130352 390.211 0.218265 358.417 4.00126 329C4.15401 327.749 4.15401 327.749 4.30985 326.473C9.07862 288.316 20.3465 249.547 37.073 214.924C37.682 213.662 38.2867 212.397 38.8865 211.131C47.7931 192.344 58.6441 174.702 71.0013 158C71.5108 157.306 72.0203 156.613 72.5452 155.898C84.8737 139.141 98.1885 123.62 112.874 108.887C114.676 107.076 116.466 105.254 118.257 103.432C126.036 95.582 134.182 88.6485 143.001 82C144.453 80.8617 145.903 79.7204 147.349 78.5742C171.137 60.0012 196.493 44.5187 224.22 32.6484C227.593 31.1971 230.887 29.6083 234.189 28C243.152 23.8351 252.587 20.9558 262.001 18C262.75 17.7639 263.498 17.5279 264.269 17.2846C280.814 12.1133 297.684 8.12526 314.796 5.3613C316.467 5.08754 318.136 4.8031 319.804 4.51364C339.18 1.17856 358.512 0.795817 378.126 0.749972ZM201.001 182C200.062 182.782 199.122 183.565 198.154 184.371C177.371 202.392 162.407 226.194 156.001 253C155.682 253.993 155.362 254.985 155.033 256.008C151.522 268.444 151.708 281.236 151.727 294.03C151.722 296.013 151.717 297.996 151.711 299.978C151.698 305.326 151.697 310.673 151.7 316.02C151.701 320.503 151.696 324.985 151.691 329.468C151.68 340.054 151.68 350.64 151.686 361.226C151.692 372.103 151.679 382.981 151.658 393.859C151.64 403.237 151.634 412.615 151.638 421.993C151.639 427.577 151.637 433.161 151.623 438.745C151.61 444.001 151.612 449.258 151.625 454.514C151.628 456.429 151.625 458.343 151.617 460.258C151.48 494.178 161.416 527.112 184.001 553C184.799 553.942 185.597 554.885 186.419 555.855C209.096 582.06 241.822 597.362 276.001 601C282.815 601.466 289.638 601.402 296.463 601.372C298.432 601.375 300.4 601.378 302.369 601.383C307.654 601.393 312.939 601.383 318.223 601.37C323.787 601.359 329.351 601.363 334.914 601.365C344.248 601.366 353.581 601.355 362.914 601.336C373.67 601.315 384.426 601.312 395.182 601.318C405.58 601.323 415.979 601.318 426.377 601.307C430.78 601.302 435.183 601.301 439.586 601.303C444.777 601.305 449.968 601.297 455.159 601.281C457.052 601.277 458.946 601.276 460.839 601.279C476.916 601.299 491.578 599.984 507.001 595C508.097 594.664 509.193 594.327 510.322 593.98C526.014 588.829 540.523 580.814 553.001 570C553.545 569.533 554.088 569.067 554.648 568.586C565.933 558.802 575.501 547.994 583.001 535C583.356 534.391 583.71 533.781 584.076 533.153C592.825 517.945 598.182 502.302 601.001 485C601.175 483.951 601.348 482.902 601.526 481.821C602.038 477.707 602.146 473.672 602.142 469.535C602.145 468.708 602.148 467.882 602.151 467.031C602.159 464.275 602.161 461.52 602.162 458.764C602.167 456.783 602.172 454.801 602.177 452.819C602.191 447.443 602.197 442.066 602.201 436.689C602.204 433.324 602.208 429.958 602.213 426.592C602.227 416.041 602.236 405.49 602.24 394.94C602.245 382.798 602.262 370.656 602.291 358.514C602.313 349.107 602.323 339.699 602.324 330.292C602.325 324.684 602.331 319.077 602.349 313.469C602.366 308.184 602.368 302.899 602.359 297.614C602.358 295.688 602.362 293.762 602.372 291.836C602.522 261.026 595.141 229.201 575.001 205C574.087 203.79 574.087 203.79 573.154 202.555C551.431 174.097 519.169 156.704 483.954 151.424C475.954 150.566 467.922 150.714 459.885 150.725C457.881 150.721 455.877 150.716 453.873 150.71C448.464 150.697 443.055 150.696 437.646 150.698C433.113 150.699 428.581 150.695 424.049 150.69C413.346 150.679 402.644 150.678 391.942 150.684C380.939 150.69 369.937 150.678 358.935 150.657C349.454 150.639 339.974 150.633 330.493 150.636C324.846 150.638 319.199 150.636 313.552 150.622C308.236 150.609 302.921 150.611 297.605 150.624C295.667 150.626 293.73 150.624 291.792 150.615C258.332 150.482 226.819 160.159 201.001 182Z" fill="#FEFEFE"/>
</svg>
