<svg width="32" height="29" viewBox="0 0 32 29" fill="none" xmlns="http://www.w3.org/2000/svg">
<g clip-path="url(#clip0_316_139)">
<path d="M21.8715 19.6492H10.164L5.15063 28.4788C5.75375 28.788 6.43864 28.9862 6.8816 28.9862C11.4871 28.9862 20.886 28.9175 25.5518 28.9175C26.0316 28.9175 26.4807 28.7526 26.8834 28.4943L21.8715 19.6492Z" fill="#4185F3"/>
<path d="M5.15074 28.4792L10.1641 19.6495H0.00521557C0.000104453 20.2631 0.216475 20.8245 0.555512 21.4649C1.50005 23.2467 3.09812 26.0948 4.03686 27.5825C4.26823 27.949 5.18686 28.4977 5.15074 28.4792Z" fill="#1767D1"/>
<path d="M21.8716 19.6491L26.8852 28.4928C27.535 28.0764 28.0645 27.4168 28.4084 26.8094C29.1846 25.4396 30.4971 23.1586 31.4024 21.6143C31.8233 20.8963 31.9868 20.2514 31.9766 19.6484L21.8716 19.6491Z" fill="#E94235"/>
<path d="M10.165 19.6499L16.0128 9.3993L10.7865 0.613647C10.2212 0.988477 9.73769 1.4973 9.51825 1.88484C7.23699 5.91898 2.64142 14.1869 0.330513 18.2732C0.0937186 18.6914 -0.0196551 19.169 0.00374291 19.6499H10.165Z" fill="#30A753"/>
<path d="M21.8711 19.6498L16.0127 9.39922L21.0955 0.623535C21.6608 0.998708 22.2813 1.49722 22.5007 1.88511C24.782 5.91891 29.3776 14.1868 31.6895 18.2732C31.928 18.6933 31.9999 19.1688 31.9767 19.6498H21.8711Z" fill="#F9BC00"/>
<path d="M10.7859 0.615032L16.0129 9.39931L21.0957 0.623621C20.5709 0.314412 19.8278 0.131292 19.1081 0.108273C17.106 0.0409343 13.8601 0.0137926 12.1131 0.0904077C11.6824 0.109304 10.7913 0.611253 10.7859 0.615032Z" fill="#0F8038"/>
</g>
<defs>
<clipPath id="clip0_316_139">
<rect width="32" height="29" fill="white"/>
</clipPath>
</defs>
</svg>
