<svg width="10407" height="1851" viewBox="0 0 10407 1851" fill="none" xmlns="http://www.w3.org/2000/svg">
<g clip-path="url(#clip0_168_2)">
<path d="M1837.68 1711.75C1847.41 1736.09 1845.79 1760.43 1832.81 1784.78C1819.82 1807.5 1800.35 1818.86 1774.39 1818.86H1224.27C1204.8 1818.86 1187.76 1811.55 1173.15 1796.95C1160.17 1782.34 1153.68 1764.49 1153.68 1743.39V1568.13L786.123 725.895L754.479 652.868C749.61 641.51 740.686 635.829 727.703 635.829C716.345 634.207 706.608 639.885 698.493 652.868L664.415 723.46L571.917 910.895C547.576 961.201 546.763 1013.13 569.483 1066.68L851.845 1711.75C861.581 1736.09 859.96 1760.43 846.977 1784.78C833.993 1807.5 814.52 1818.86 788.557 1818.86H238.438C162.168 1818.86 103.749 1783.15 63.1795 1711.75C22.6103 1643.59 17.742 1571.38 48.5746 1495.11V1487.8L99.6918 1383.13L559.747 443.526L579.22 399.71L598.693 353.46C608.43 330.74 608.43 308.023 598.693 285.303L569.483 224.447C556.5 200.105 556.5 174.952 569.483 148.987C582.466 123.022 601.94 110.039 627.903 110.039H1226.7C1252.67 110.039 1272.14 123.022 1285.12 148.987C1298.11 174.952 1298.11 200.105 1285.12 224.447L1255.91 285.303C1246.18 308.023 1246.18 330.74 1255.91 353.46L1275.39 399.71L1835.24 1704.45L1837.68 1711.75ZM2752.39 837.868C2744.27 818.395 2730.48 805.411 2711 798.921C2691.53 792.431 2672.06 793.24 2652.58 801.355C2636.36 809.47 2621.75 821.641 2608.77 837.868C2597.41 852.474 2587.68 869.513 2579.56 888.987C2571.45 908.461 2564.96 927.934 2560.09 947.408C2556.84 965.26 2555.22 980.674 2555.22 993.658V1546.22C2555.22 1554.34 2557.65 1565.7 2562.52 1580.3C2569.01 1594.91 2575.5 1610.33 2581.99 1626.55C2590.11 1641.16 2598.22 1656.58 2606.34 1672.8C2614.45 1687.41 2620.94 1699.58 2625.81 1709.32C2638.79 1733.66 2638.79 1758 2625.81 1782.34C2612.83 1806.68 2593.35 1818.86 2567.39 1818.86H2046.48C2020.52 1818.86 2001.04 1806.68 1988.06 1782.34C1975.08 1758 1975.08 1733.66 1988.06 1709.32C1992.93 1699.58 1999.42 1687.41 2007.53 1672.8C2015.65 1656.58 2022.95 1641.16 2029.44 1626.55C2037.56 1610.33 2044.05 1594.91 2048.91 1580.3C2055.41 1565.7 2058.65 1554.34 2058.65 1546.22V815.961C2058.65 807.845 2055.41 796.487 2048.91 781.882C2044.05 767.276 2037.56 752.671 2029.44 738.066C2022.95 721.839 2015.65 706.421 2007.53 691.816C1999.42 675.589 1992.93 662.605 1988.06 652.868C1975.08 628.526 1975.08 604.184 1988.06 579.842C2001.04 555.5 2020.52 543.329 2046.48 543.329H2465.16C2491.12 544.951 2513.03 554.688 2530.88 572.539C2548.73 590.391 2557.65 612.299 2557.65 638.263C2609.58 605.806 2667.19 577.408 2730.48 553.066C2793.77 528.724 2856.24 518.174 2917.91 521.421C2947.12 523.043 2975.51 530.345 3003.1 543.329C3032.31 554.688 3057.46 570.105 3078.58 589.579C3101.28 609.053 3119.14 632.582 3132.13 660.171C3145.09 686.135 3151.6 715.345 3151.6 747.803C3151.6 804.602 3134.56 850.039 3100.48 884.118C3068.02 918.197 3029.88 940.105 2986.06 949.842C2942.25 959.579 2897.62 955.523 2852.19 937.671C2808.37 918.197 2775.1 882.497 2752.39 830.566V833V837.868ZM4271.55 1721.49C4271.55 1744.21 4261.03 1760.43 4239.91 1770.17C4170.14 1802.63 4101.16 1823.72 4033.01 1833.46C3966.49 1844.82 3904 1850.5 3845.58 1850.5C3780.68 1850.5 3723.87 1842.38 3675.19 1826.16C3628.15 1811.55 3588.38 1786.4 3555.91 1750.7C3525.09 1715 3501.57 1667.93 3485.32 1609.51C3470.72 1549.47 3463.42 1476.44 3463.42 1390.43V966.882V777.013C3463.42 762.408 3457.76 750.237 3446.38 740.5C3436.64 729.141 3424.47 723.46 3409.86 723.46H3344.14C3329.54 723.46 3316.58 718.592 3305.2 708.855C3295.46 697.497 3290.59 684.513 3290.59 669.908V596.881C3290.59 582.276 3295.46 570.105 3305.2 560.368C3314.93 549.01 3327.1 542.516 3341.71 540.895C3385.52 537.648 3429.34 526.289 3473.15 506.816C3518.61 487.342 3560.78 462.188 3599.73 431.355C3640.32 400.523 3676.01 365.632 3706.83 326.684C3739.3 286.114 3764.46 243.921 3782.29 200.105C3790.41 179.008 3806.63 168.46 3830.97 168.46H3906.43C3921.04 168.46 3933.21 174.14 3942.94 185.5C3954.32 195.237 3959.98 207.408 3959.98 222.013V489.776C3959.98 504.382 3964.85 517.365 3974.59 528.724C3985.97 538.46 3998.93 543.329 4013.53 543.329H4215.57C4230.17 543.329 4242.35 549.01 4252.08 560.368C4263.46 570.105 4269.12 582.276 4269.12 596.881V667.474C4269.12 682.079 4263.46 695.062 4252.08 706.421C4242.35 716.158 4230.17 721.026 4215.57 721.026H4013.53C3998.93 721.026 3985.97 726.707 3974.59 738.066C3964.85 747.803 3959.98 759.974 3959.98 774.579V1407.47C3959.98 1456.16 3977.02 1498.35 4011.1 1534.05C4046.82 1568.13 4088.99 1585.17 4137.68 1585.17C4160.41 1585.17 4179.06 1581.92 4193.66 1575.43C4211.52 1570.57 4227.74 1573 4242.34 1582.74C4256.95 1592.47 4264.25 1606.27 4264.25 1624.12V1716.62L4271.55 1721.49ZM4921.5 531.158C5014 510.062 5109.75 507.628 5208.73 523.855C5307.71 538.46 5397.78 571.727 5478.92 623.658C5561.69 673.964 5629.84 743.747 5683.39 833C5738.56 920.632 5767.77 1026.92 5771.02 1151.88V1188.39C5771.02 1206.25 5764.54 1221.66 5751.55 1234.64C5738.56 1247.63 5723.16 1254.12 5705.3 1254.12H4960.45C4944.23 1254.12 4931.24 1260.61 4921.5 1273.59C4911.77 1286.58 4907.72 1300.37 4909.33 1314.97C4919.07 1388 4953.15 1447.23 5011.57 1492.67C5082.98 1547.85 5161.66 1565.7 5247.68 1546.22L5629.84 1463.46C5654.18 1458.59 5672.83 1466.71 5685.83 1487.8C5698.82 1508.9 5698.82 1530 5685.83 1551.09C5653.36 1603.02 5615.24 1647.65 5571.42 1684.97C5527.61 1720.67 5479.75 1749.89 5427.81 1772.61C5377.51 1795.33 5323.14 1812.37 5264.72 1823.72C5207.91 1835.08 5150.31 1840.76 5091.89 1840.76H5089.46H5082.16H5038.34H5035.91H5028.61C4949.1 1834.27 4871.21 1816.42 4794.93 1787.21C4720.29 1756.38 4653.75 1713.37 4595.33 1658.2C4536.91 1603.02 4489.84 1535.67 4454.15 1456.16C4418.46 1376.64 4400.6 1284.95 4400.6 1181.09C4400.6 1088.59 4415.2 1005.83 4444.41 932.803C4473.62 859.776 4511.74 796.487 4558.81 742.934C4607.5 689.381 4662.66 645.566 4724.34 611.487C4787.63 575.786 4853.35 550.631 4921.5 536.026V531.158ZM5201.43 1095.89C5219.29 1095.89 5234.69 1089.4 5247.68 1076.42C5260.67 1063.44 5267.15 1048.02 5267.15 1030.17V888.987C5267.15 838.681 5249.29 795.674 5213.6 759.974C5179.52 724.273 5137.32 706.421 5087.03 706.421C5036.73 706.421 4993.71 724.273 4958.02 759.974C4923.94 795.674 4906.9 838.681 4906.9 888.987V1030.17C4906.9 1048.02 4913.38 1063.44 4926.37 1076.42C4939.36 1089.4 4954.76 1095.89 4972.62 1095.89H5201.43ZM6479.7 648C6562.46 596.069 6637.09 561.99 6703.64 545.763C6770.18 529.536 6838.34 521.421 6908.11 521.421C6979.52 521.421 7041.98 533.592 7095.54 557.934C7150.7 582.276 7194.52 624.47 7226.98 684.513C7246.45 669.908 7269.97 653.681 7297.57 635.829C7326.78 616.355 7360.86 598.503 7399.81 582.276C7440.36 564.424 7486.61 549.819 7538.55 538.46C7590.49 527.102 7650.52 521.421 7718.68 521.421C7775.49 521.421 7826.6 529.536 7872.03 545.763C7919.1 560.368 7958.84 585.523 7991.3 621.224C8025.38 656.924 8051.34 704.799 8069.2 764.842C8088.67 823.263 8098.41 895.477 8098.41 981.487C8098.41 1005.83 8098.41 1037.47 8098.41 1076.42C8098.41 1113.75 8098.41 1152.69 8098.41 1193.26C8100.02 1232.21 8100.84 1271.16 8100.84 1310.11C8100.84 1347.43 8100.84 1379.08 8100.84 1405.04V1553.53C8100.84 1566.51 8103.27 1578.68 8108.14 1590.04L8171.43 1716.62C8184.42 1740.96 8184.42 1765.3 8171.43 1789.64C8158.44 1813.99 8138.97 1826.16 8113.01 1826.16H7592.1C7566.15 1826.16 7546.68 1813.99 7533.68 1789.64C7520.69 1765.3 7520.69 1740.96 7533.68 1716.62C7541.81 1700.39 7547.47 1689.03 7550.72 1682.54C7555.59 1674.42 7559.64 1667.12 7562.89 1660.63C7566.15 1654.14 7570.2 1646.03 7575.06 1636.29C7579.93 1626.55 7587.23 1611.95 7596.97 1592.47C7601.84 1581.12 7604.27 1568.94 7604.27 1555.96C7604.27 1450.48 7604.27 1345.81 7604.27 1241.95C7604.27 1138.09 7603.45 1033.42 7601.84 927.934C7601.84 895.477 7592.92 866.266 7575.06 840.303C7563.71 824.076 7552.33 811.904 7540.99 803.789C7511.78 782.694 7480.95 772.145 7448.49 772.145C7407.93 772.145 7372.21 785.938 7341.39 813.526C7312.18 841.115 7295.96 874.382 7292.7 913.329V1278.46V1402.61V1551.09C7292.7 1564.08 7295.14 1576.25 7300 1587.61L7363.29 1714.18C7376.29 1738.53 7376.29 1762.87 7363.29 1787.21C7350.3 1811.55 7330.83 1823.72 7304.87 1823.72H6781.53C6755.58 1823.72 6736.1 1811.55 6723.11 1787.21C6710.12 1762.87 6710.12 1738.53 6723.11 1714.18L6786.4 1587.61C6791.27 1576.25 6793.7 1564.08 6793.7 1551.09V1147.01V920.632C6793.7 888.174 6784.79 858.964 6766.93 833C6755.58 816.773 6744.2 804.602 6732.85 796.487C6703.64 775.391 6672.81 764.842 6640.35 764.842C6599.79 764.842 6564.07 778.635 6533.25 806.224C6504.04 833.812 6487.82 867.079 6484.56 906.026V1546.22C6484.56 1559.21 6487 1571.38 6491.87 1582.74C6503.22 1605.46 6511.34 1621.68 6516.21 1631.42C6521.08 1639.54 6524.33 1646.84 6525.94 1653.33C6529.2 1658.2 6532.43 1663.88 6535.68 1670.37C6538.94 1676.86 6545.42 1689.84 6555.15 1709.32C6568.15 1733.66 6568.15 1758 6555.15 1782.34C6542.16 1806.68 6522.69 1818.86 6496.73 1818.86H5975.83C5949.87 1818.86 5930.4 1806.68 5917.41 1782.34C5904.41 1758 5904.41 1733.66 5917.41 1709.32L5980.69 1582.74C5985.56 1571.38 5988 1559.21 5988 1546.22V815.961C5988 804.602 5985.56 792.431 5980.69 779.447L5917.41 652.868C5912.54 641.51 5910.1 629.339 5910.1 616.355C5910.1 596.881 5915.79 579.842 5927.14 565.237C5940.14 550.632 5956.35 543.329 5975.83 543.329H6392.07C6418.02 543.329 6439.93 552.253 6457.79 570.105C6475.65 587.957 6484.56 609.865 6484.56 635.829L6479.7 648ZM8393.52 1543.79V813.526C8393.52 802.168 8391.08 789.997 8386.21 777.013L8322.93 650.434C8309.93 626.092 8309.93 601.75 8322.93 577.408C8335.92 553.066 8355.39 540.895 8381.35 540.895H8797.59C8823.54 540.895 8845.45 549.819 8863.31 567.671C8881.17 585.523 8890.08 607.431 8890.08 633.395V1541.36C8890.08 1554.34 8892.52 1566.51 8897.39 1577.87L8960.67 1704.45C8973.67 1728.79 8973.67 1753.13 8960.67 1777.47C8947.68 1801.82 8928.21 1813.99 8902.26 1813.99H8381.35C8355.39 1813.99 8335.92 1801.82 8322.93 1777.47C8309.93 1753.13 8309.93 1728.79 8322.93 1704.45L8386.21 1577.87C8391.08 1566.51 8393.52 1554.34 8393.52 1541.36V1543.79ZM8653.97 0.499756C8688.05 0.499756 8720.52 6.99101 8751.34 19.9735C8782.16 31.3331 8808.94 47.5614 8831.66 68.6578C8854.39 89.7542 8872.22 114.908 8885.22 144.118C8898.21 171.706 8904.69 200.916 8904.69 231.75C8904.69 264.206 8898.21 294.228 8885.22 321.816C8872.22 349.404 8854.39 373.747 8831.66 394.842C8808.94 415.938 8782.16 432.977 8751.34 445.96C8720.52 457.319 8688.05 463 8653.97 463C8619.89 463 8587.43 457.319 8556.61 445.96C8525.78 432.977 8499.01 415.938 8476.28 394.842C8453.55 373.747 8435.72 349.404 8422.73 321.816C8409.74 294.228 8403.25 264.206 8403.25 231.75C8403.25 200.916 8409.74 171.706 8422.73 144.118C8435.72 114.908 8453.55 89.7542 8476.28 68.6578C8499.01 47.5614 8525.78 31.3331 8556.61 19.9735C8587.43 6.99101 8619.89 0.499756 8653.97 0.499756ZM10321.9 660.171C10346.2 681.266 10360.8 706.421 10365.7 735.632C10370.5 763.22 10367.3 789.997 10355.9 815.961C10346.2 841.924 10329.9 864.645 10307.2 884.118C10284.5 903.592 10257.7 915.763 10226.9 920.632C10197.7 923.878 10165.2 917.385 10129.6 901.158C10095.5 883.306 10061.4 850.852 10027.3 803.789C10012.7 784.316 9998.9 766.464 9985.94 750.237C9972.95 732.385 9959.96 717.78 9946.99 706.421C9914.53 680.457 9880.45 667.474 9844.76 667.474C9810.68 667.474 9781.47 676.398 9757.1 694.25C9740.88 705.609 9728.71 720.214 9720.62 738.066C9712.49 755.918 9710.88 775.391 9715.75 796.487C9720.62 817.582 9732.79 840.303 9752.26 864.645C9773.35 887.365 9803.38 910.895 9842.33 935.237C9894.23 966.069 9953.47 996.904 10020 1027.74C10088.2 1058.57 10151.5 1094.27 10209.9 1134.84C10268.3 1175.41 10315.3 1223.29 10351.1 1278.46C10386.8 1333.63 10398.9 1400.17 10387.6 1478.07C10379.5 1528.37 10361.6 1573.81 10334 1614.38C10306.4 1654.95 10271.5 1689.84 10229.4 1719.05C10200.1 1738.53 10166.1 1756.38 10127.1 1772.61C10088.2 1788.83 10046 1802.63 10000.5 1813.99C9955.09 1825.35 9906.4 1834.27 9854.5 1840.76C9804.17 1847.25 9753.87 1850.5 9703.58 1850.5C9643.52 1850.5 9584.3 1846.44 9525.88 1838.33C9467.47 1831.84 9413.09 1820.48 9362.77 1804.25C9312.47 1786.4 9267.86 1764.49 9228.92 1738.53C9191.58 1712.56 9163.2 1682.54 9143.72 1648.46C9120.99 1607.89 9111.26 1570.57 9114.51 1536.49C9117.74 1502.41 9129.91 1473.2 9151.03 1448.86C9172.11 1424.51 9198.07 1405.85 9228.92 1392.87C9261.35 1379.88 9293.82 1374.21 9326.28 1375.83C9360.36 1377.45 9392.01 1387.19 9421.22 1405.04C9450.43 1421.27 9472.33 1448.04 9486.94 1485.37L9494.24 1514.58C9512.07 1569.75 9537.23 1611.14 9569.7 1638.72C9603.78 1664.69 9637.03 1680.11 9669.5 1684.97C9703.58 1689.84 9734.4 1685.79 9762 1672.8C9789.56 1659.82 9807.42 1641.16 9815.55 1616.82C9825.29 1592.47 9821.21 1564.08 9803.38 1531.62C9785.52 1499.16 9749 1465.89 9693.84 1431.82C9641.9 1400.98 9581.87 1370.15 9513.71 1339.32C9447.17 1308.48 9384.7 1272.78 9326.28 1232.21C9267.86 1191.64 9219.97 1143.77 9182.67 1088.59C9146.95 1033.42 9135.6 966.882 9148.59 888.987C9156.68 838.681 9174.54 793.24 9202.11 752.671C9229.71 712.102 9264.61 677.21 9306.81 648C9389.57 591.201 9479.64 553.878 9577 536.026C9675.98 516.553 9773.35 510.062 9869.1 516.553C9903.18 519.799 9940.48 524.668 9981.07 531.158C10021.6 537.648 10062.2 546.576 10102.8 557.934C10145 567.671 10183.9 580.654 10219.6 596.881C10256.9 613.109 10288.6 631.773 10314.5 652.868L10321.9 660.171Z" fill="#333E75"/>
</g>
<defs>
<clipPath id="clip0_168_2">
<rect width="10406" height="1850" fill="white" transform="translate(0.5 0.5)"/>
</clipPath>
</defs>
</svg>
