<svg width="65" height="66" viewBox="0 0 65 66" fill="none" xmlns="http://www.w3.org/2000/svg">
<g clip-path="url(#clip0_563_177)">
<path d="M0 0.5C21.45 0.5 42.9 0.5 65 0.5C65 21.95 65 43.4 65 65.5C43.55 65.5 22.1 65.5 0 65.5C0 44.05 0 22.6 0 0.5Z" fill="#FFFDFE"/>
<path d="M37.0562 16.0213C37.1367 16.0212 37.2172 16.0212 37.2977 16.0211C37.4657 16.021 37.6337 16.0211 37.8016 16.0214C38.0129 16.0217 38.2241 16.0215 38.4353 16.0212C40.7361 16.0184 40.7361 16.0184 41.653 16.1329C41.653 17.8264 41.653 19.5198 41.653 21.2645C40.2906 21.2776 40.2906 21.2776 39.8694 21.2801C38.7085 21.293 37.4205 21.3285 36.4501 22.0428C36.3606 22.1023 36.3606 22.1023 36.2558 22.1023C36.2429 22.1304 36.2299 22.1584 36.2165 22.1874C36.151 22.3117 36.151 22.3117 36.0462 22.459C35.8293 22.8045 35.82 23.1366 35.8151 23.534C35.8141 23.5871 35.8131 23.6403 35.812 23.6951C35.8087 23.8699 35.8061 24.0447 35.8035 24.2195C35.8013 24.3411 35.7991 24.4626 35.7969 24.5842C35.7911 24.9035 35.7859 25.2228 35.7809 25.542C35.7756 25.8681 35.7698 26.1942 35.764 26.5203C35.7527 27.1596 35.7421 27.7989 35.7319 28.4382C35.8061 28.4359 35.8061 28.4359 35.8819 28.4335C36.8883 28.4026 37.8941 28.376 38.901 28.3761C39.0762 28.376 39.2514 28.375 39.4266 28.374C40.1296 28.3722 40.8057 28.3988 41.4958 28.5429C41.555 29.4756 41.3184 30.405 41.1304 31.3132C41.0265 31.8211 40.9351 32.3315 40.8415 32.8414C40.8049 33.0409 40.7681 33.2405 40.7313 33.44C40.7124 33.5431 40.6935 33.6463 40.6746 33.7494C40.6471 33.9 40.6193 34.0506 40.5915 34.2011C40.5789 34.2707 40.5789 34.2707 40.566 34.3416C40.5062 34.6634 40.5062 34.6634 40.4478 34.7217C40.2979 34.7267 40.1493 34.7283 39.9993 34.7276C39.9288 34.7276 39.9288 34.7276 39.8568 34.7277C39.7006 34.7276 39.5444 34.7272 39.3882 34.7268C39.2801 34.7267 39.1721 34.7266 39.0641 34.7266C38.7793 34.7264 38.4944 34.7259 38.2095 34.7253C37.919 34.7247 37.6286 34.7245 37.3381 34.7242C36.7678 34.7237 36.1974 34.7228 35.6271 34.7217C35.6271 34.7537 35.6271 34.7857 35.6271 34.8187C35.6283 36.7133 35.6292 38.6079 35.6297 40.5025C35.6298 40.7297 35.6299 40.957 35.6299 41.1842C35.63 41.2521 35.63 41.2521 35.63 41.3213C35.6302 42.0549 35.6306 42.7884 35.6311 43.522C35.6316 44.2741 35.6319 45.0262 35.632 45.7783C35.6321 46.2428 35.6323 46.7073 35.6327 47.1718C35.633 47.4898 35.6331 47.8079 35.633 48.126C35.633 48.3098 35.633 48.4935 35.6333 48.6773C35.6336 48.8761 35.6335 49.0749 35.6334 49.2737C35.6336 49.3618 35.6336 49.3618 35.6338 49.4517C35.6337 49.5045 35.6336 49.5573 35.6335 49.6117C35.6335 49.6577 35.6335 49.7036 35.6336 49.7509C35.6271 49.8545 35.6271 49.8545 35.5747 49.9068C35.4911 49.9119 35.4074 49.9132 35.3237 49.9131C35.2694 49.9132 35.2151 49.9133 35.1591 49.9134C35.099 49.9132 35.039 49.913 34.9771 49.9128C34.9142 49.9128 34.8513 49.9128 34.7865 49.9128C34.6137 49.9128 34.4408 49.9125 34.2679 49.9122C34.0874 49.9118 33.9069 49.9118 33.7264 49.9117C33.3844 49.9116 33.0423 49.9111 32.7003 49.9106C32.311 49.91 31.9218 49.9097 31.5325 49.9095C30.7315 49.9089 29.9305 49.908 29.1295 49.9068C29.1287 49.8449 29.1287 49.8449 29.1279 49.7818C29.1226 49.3817 29.1172 48.9817 29.1117 48.5816C29.1089 48.3763 29.1061 48.1709 29.1034 47.9655C29.1003 47.7263 29.0971 47.487 29.0937 47.2478C29.0931 47.2067 29.0925 47.1656 29.0919 47.1233C29.0854 46.6741 29.0775 46.225 29.0646 45.776C29.0188 44.17 29.0081 42.5641 28.9976 40.9576C28.9955 40.6429 28.9933 40.3282 28.991 40.0134C28.9881 39.6258 28.9854 39.2381 28.9827 38.8505C28.982 38.7435 28.9812 38.6365 28.9804 38.5296C28.9713 37.2428 28.9723 35.9562 28.9723 34.6693C27.1394 34.6693 25.3064 34.6693 23.418 34.6693C23.4169 34.0656 23.4158 33.4619 23.4147 32.8399C23.4142 32.6544 23.4137 32.4689 23.4132 32.2778C23.4122 31.0485 23.4403 29.8252 23.4704 28.5953C25.3033 28.5953 27.1362 28.5953 29.0247 28.5953C29.0241 28.1775 29.0235 27.7598 29.0229 27.3293C29.0226 27.0652 29.0223 26.801 29.0222 26.5369C29.0218 26.1173 29.0215 25.6977 29.0208 25.2781C29.0202 24.94 29.0199 24.6018 29.0197 24.2637C29.0196 24.1344 29.0195 24.0052 29.0192 23.876C29.0188 23.6955 29.0187 23.5149 29.0188 23.3344C29.0186 23.2806 29.0184 23.2268 29.0182 23.1714C29.0183 23.1223 29.0183 23.0732 29.0184 23.0225C29.0184 22.9798 29.0183 22.9371 29.0183 22.8931C29.0247 22.783 29.0247 22.783 29.0771 22.6259C29.0858 22.5506 29.0925 22.4751 29.0978 22.3995C29.1436 21.8077 29.2245 21.2578 29.3915 20.6885C29.4106 20.619 29.4296 20.5496 29.4486 20.4801C29.8732 18.9796 30.7965 17.7971 32.154 17.0241C33.635 16.1979 35.3883 16.0186 37.0562 16.0213Z" fill="#FF0000"/>
<path d="M28.8521 15.4238C29.0491 15.4567 29.0491 15.4567 29.2501 15.4902C29.1844 15.5777 29.1187 15.6653 29.0511 15.7555C28.9635 15.7117 28.876 15.6679 28.7858 15.6228C28.8077 15.5571 28.8295 15.4915 28.8521 15.4238Z" fill="white"/>
</g>
<defs>
<clipPath id="clip0_563_177">
<rect y="0.5" width="65" height="65" rx="32.5" fill="white"/>
</clipPath>
</defs>
</svg>
