<svg width="65" height="66" viewBox="0 0 65 66" fill="none" xmlns="http://www.w3.org/2000/svg">
<rect y="0.5" width="65" height="65" rx="32.5" fill="white"/>
<path d="M25.2206 16.0022C25.3976 16.0018 25.5746 16.0014 25.7516 16.0008C26.2285 15.9996 26.7053 16 27.1822 16.0009C27.6835 16.0016 28.1849 16.0009 28.6863 16.0005C29.5279 16 30.3696 16.0007 31.2112 16.002C32.1813 16.0034 33.1514 16.0029 34.1214 16.0015C34.9575 16.0002 35.7936 16.0001 36.6297 16.0008C37.1277 16.0012 37.6256 16.0013 38.1236 16.0004C38.5919 15.9996 39.0603 16.0001 39.5287 16.0017C39.6995 16.002 39.8704 16.0019 40.0413 16.0013C42.5086 15.9935 44.676 16.6341 46.4643 18.3896C47.0651 18.9987 47.5394 19.6159 47.9758 20.3542C48.01 20.4111 48.0442 20.468 48.0795 20.5267C48.2983 20.9247 48.4345 21.3503 48.5717 21.7819C48.5996 21.8693 48.5996 21.8693 48.628 21.9585C48.6842 22.1424 48.7351 22.3271 48.7853 22.5127C48.8014 22.5696 48.8174 22.6265 48.8339 22.6851C49.029 23.4951 48.9911 24.3233 48.9899 25.1508C48.9903 25.3267 48.9908 25.5026 48.9913 25.6785C48.9925 26.1544 48.9926 26.6303 48.9923 27.1062C48.9922 27.5047 48.9927 27.9031 48.9931 28.3016C48.9941 29.2425 48.9942 30.1835 48.9936 31.1244C48.9931 32.0921 48.9942 33.0598 48.9961 34.0275C48.9977 34.8608 48.9982 35.6941 48.9979 36.5273C48.9978 37.0239 48.998 37.5205 48.9992 38.0171C49.0004 38.4846 49.0002 38.9522 48.999 39.4198C48.9988 39.5903 48.999 39.7609 48.9998 39.9314C49.0106 42.5764 48.2804 44.7312 46.4187 46.6723C45.3288 47.7251 43.9747 48.4609 42.4892 48.7746C42.3801 48.7985 42.3801 48.7985 42.2687 48.8229C41.4038 48.9901 40.5471 48.9811 39.67 48.9806C39.4961 48.9811 39.3222 48.9817 39.1483 48.9824C38.6787 48.984 38.2091 48.9844 37.7394 48.9845C37.4452 48.9847 37.151 48.9851 36.8567 48.9855C35.8279 48.9872 34.799 48.9879 33.7701 48.9878C32.8149 48.9877 31.8597 48.9896 30.9045 48.9924C30.0813 48.9948 29.258 48.9957 28.4348 48.9956C27.9445 48.9956 27.4542 48.9961 26.9639 48.998C26.5022 48.9997 26.0405 48.9997 25.5788 48.9984C25.4106 48.9982 25.2425 48.9987 25.0743 48.9998C22.5545 49.0151 20.2767 48.2838 18.4459 46.5043C16.5576 44.5668 16.0178 42.2834 16.0194 39.6599C16.0189 39.486 16.0183 39.3121 16.0176 39.1383C16.016 38.6687 16.0156 38.1991 16.0155 37.7295C16.0153 37.4353 16.0149 37.141 16.0145 36.8468C16.0128 35.818 16.0121 34.7893 16.0122 33.7605C16.0123 32.8053 16.0104 31.8502 16.0076 30.8951C16.0052 30.0719 16.0043 29.2487 16.0044 28.4255C16.0044 27.9352 16.0039 27.445 16.002 26.9547C16.0002 26.493 16.0003 26.0314 16.0016 25.5697C16.0017 25.4016 16.0013 25.2334 16.0002 25.0653C15.9843 22.4608 16.7709 20.2175 18.5977 18.3137C19.0027 17.9192 19.4386 17.6016 19.9132 17.2963C19.9833 17.2491 20.0534 17.2019 20.1257 17.1533C21.6818 16.1525 23.4233 15.9959 25.2206 16.0022ZM41.3199 20.4441C40.8749 21.0673 40.7715 21.6682 40.8702 22.4227C40.9587 22.7196 40.9587 22.7196 41.14 22.9624C41.1762 23.0204 41.2124 23.0785 41.2497 23.1384C41.6065 23.6726 42.0528 23.9983 42.6698 24.1867C43.2703 24.3033 43.8408 24.25 44.378 23.9517C44.978 23.5402 45.4186 23.0173 45.6007 22.3033C45.711 21.5666 45.4381 20.9905 45.0976 20.3542C45.0382 20.3542 44.9789 20.3542 44.9177 20.3542C44.8732 20.2206 44.8732 20.2206 44.8278 20.0843C44.3083 19.6666 43.7158 19.4052 43.0412 19.427C42.3547 19.5262 41.7712 19.933 41.3199 20.4441ZM30.2568 22.7825C30.1751 22.8009 30.0935 22.8193 30.0094 22.8383C28.5265 23.231 26.9513 24.1522 25.8495 25.2108C25.8495 25.2702 25.8495 25.3295 25.8495 25.3907C25.7752 25.4173 25.7752 25.4173 25.6995 25.4444C25.4025 25.623 25.2189 25.8779 25.0119 26.1495C24.9682 26.2063 24.9245 26.2631 24.8795 26.3215C23.6592 27.9251 22.7405 29.8135 22.7014 31.8662C22.699 31.9667 22.6966 32.0673 22.6941 32.1708C22.6903 32.4894 22.6937 32.8068 22.7014 33.1254C22.7029 33.2045 22.7044 33.2837 22.706 33.3653C22.8263 35.5813 23.9693 37.9421 25.5575 39.4843C25.7441 39.6439 25.9312 39.8028 26.1193 39.9606C26.1969 40.0271 26.2745 40.0935 26.3544 40.162C27.1703 40.8485 28.0132 41.3519 28.9975 41.7594C29.0908 41.7985 29.184 41.8376 29.28 41.8778C31.4788 42.7342 34.0561 42.734 36.2328 41.8075C36.5197 41.6722 36.8063 41.5364 37.0925 41.3997C37.1585 41.3701 37.2245 41.3405 37.2925 41.3101C38.2102 40.8861 38.9709 40.1968 39.7009 39.511C39.7808 39.4414 39.7808 39.4414 39.8622 39.3704C41.5954 37.7897 42.5737 35.2055 42.694 32.904C42.781 30.1601 41.7614 27.6951 39.9044 25.6963C39.8372 25.6251 39.7701 25.554 39.7009 25.4806C39.6403 25.4131 39.5797 25.3457 39.5172 25.2762C37.974 23.626 35.4272 22.57 33.1835 22.4944C32.1769 22.4785 31.2382 22.559 30.2568 22.7825Z" fill="#FF0000"/>
<path d="M36.6285 27.2902C36.8304 27.4845 37.022 27.6845 37.2109 27.8933C37.2853 27.9662 37.3598 28.0391 37.4365 28.1143C38.4737 29.3555 39.0091 30.8417 38.9999 32.5053C38.9993 32.6376 38.9993 32.6376 38.9986 32.7726C38.9893 33.3902 38.9359 33.9336 38.7218 34.511C38.6923 34.5986 38.6627 34.6863 38.6323 34.7766C38.1118 36.2349 37.1472 37.6419 35.7964 38.3039C34.2693 38.9971 32.6064 39.2624 30.9992 38.6811C30.3249 38.3756 29.7203 38.0015 29.1525 37.5026C29.0278 37.4128 29.0278 37.4128 28.9007 37.3213C28.9007 37.2614 28.9007 37.2016 28.9007 37.1399C28.776 37.0951 28.776 37.0951 28.6488 37.0493C28.1987 36.5739 27.8896 36.003 27.6101 35.4005C27.5821 35.3403 27.5541 35.28 27.5252 35.218C26.9437 33.9185 26.8489 32.1848 27.2218 30.7942C27.2382 30.7291 27.2545 30.664 27.2713 30.597C27.5092 29.7411 27.8967 28.8114 28.4809 28.1653C28.5364 28.1653 28.5918 28.1653 28.6488 28.1653C28.6694 28.1124 28.69 28.0596 28.7111 28.0052C29.1806 27.1046 30.4016 26.5919 31.2632 26.2463C33.0627 25.7038 35.1424 26.0599 36.6285 27.2902Z" fill="#FF0000"/>
</svg>
