<svg width="65" height="66" viewBox="0 0 65 66" fill="none" xmlns="http://www.w3.org/2000/svg">
<g clip-path="url(#clip0_563_3124)">
<path d="M0 33.2437C0 15.2945 14.307 0.5 32.2562 0.5V0.5C50.2055 0.5 65 14.807 65 32.7562V32.7562C65 50.7055 50.693 65.5 32.7437 65.5V65.5C14.7945 65.5 0 51.193 0 33.2437V33.2437Z" fill="white"/>
<path d="M45.6607 24.9611C45.9489 25.0623 46.2393 25.1555 46.5303 25.248C47.6688 25.6104 48.7817 26.0227 49.883 26.4888C50.0462 26.557 50.2101 26.6229 50.3745 26.6881C51.1197 26.9892 51.7625 27.2746 52.1156 28.0516C52.3152 28.6117 52.2923 29.1653 52.0597 29.7124C51.8113 30.1948 51.4577 30.5509 50.9396 30.7233C50.4171 30.7913 50.0036 30.6919 49.5285 30.4795C49.327 30.3909 49.1231 30.3086 48.9195 30.2253C48.7542 30.1575 48.5891 30.0892 48.4242 30.0206C48.3194 29.9773 48.2146 29.934 48.1098 29.8908C48.0619 29.871 48.014 29.8513 47.9647 29.8309C47.5743 29.6715 47.1797 29.5253 46.7834 29.3816C46.7207 29.3587 46.658 29.3357 46.5934 29.3121C46.2615 29.1915 45.9294 29.0802 45.5907 28.9809C45.468 28.9428 45.3501 28.8993 45.2308 28.8518C44.9087 28.7267 44.5745 28.6447 44.241 28.5566C44.1035 28.5198 43.9659 28.4829 43.8283 28.446C43.763 28.4285 43.6976 28.411 43.6303 28.3929C43.4204 28.336 43.2117 28.2761 43.003 28.2147C42.1205 27.9584 41.2303 27.7711 40.328 27.6015C40.2657 27.5897 40.2033 27.5779 40.1391 27.5658C37.6479 27.0985 35.1004 26.8436 32.5646 26.847C32.5147 26.847 32.4647 26.8471 32.4133 26.8471C30.2123 26.8513 27.9826 26.9571 25.8205 27.3975C25.5931 27.4432 25.3654 27.4774 25.1358 27.5095C23.2641 27.773 21.442 28.2712 19.6355 28.8205C19.5552 28.8446 19.4749 28.8688 19.3946 28.8929C19.0999 28.9827 18.8107 29.0789 18.5229 29.1889C18.3982 29.2364 18.2731 29.2826 18.1478 29.3284C17.66 29.5073 17.174 29.6904 16.6915 29.8834C16.6187 29.9124 16.6187 29.9124 16.5444 29.9419C16.2886 30.0455 16.0385 30.1558 15.7908 30.2778C15.1222 30.6056 14.5766 30.8329 13.8286 30.5932C13.376 30.3568 13.063 30.0175 12.8669 29.5452C12.7113 29.0172 12.6883 28.321 12.9295 27.8207C12.9812 27.7362 13.035 27.6529 13.0917 27.5717C13.1245 27.5178 13.1573 27.4638 13.1911 27.4082C13.6008 27.0061 14.1746 26.7882 14.6908 26.5608C14.7613 26.5295 14.8319 26.4982 14.9046 26.4659C15.3752 26.2586 15.8473 26.0661 16.3308 25.892C16.471 25.8403 16.6099 25.7858 16.7488 25.7309C17.3506 25.4938 17.9507 25.2843 18.5727 25.1088C18.7747 25.0504 18.9747 24.986 19.1749 24.9219C19.5257 24.8103 19.8777 24.7047 20.2319 24.6046C20.4059 24.5553 20.5792 24.5036 20.7523 24.4513C21.3253 24.2796 21.8892 24.1377 22.4793 24.042C22.6701 24.0092 22.8531 23.9684 23.04 23.9184C24.7275 23.4775 26.5099 23.2701 28.2426 23.112C28.3287 23.1038 28.4149 23.0955 28.501 23.0873C33.5248 22.6137 38.6218 23.1012 45.6607 24.9611Z" fill="#FF0000"/>
<path d="M32.2565 30.7456C32.4 30.7462 32.5436 30.7464 32.6871 30.7465C34.091 30.7488 35.4797 30.793 36.8731 30.9786C37.0819 31.0062 37.2906 31.0308 37.4999 31.0539C38.2582 31.1405 39.0026 31.2859 39.749 31.4441C39.9293 31.4821 40.1098 31.5188 40.2905 31.5552C41.57 31.8144 42.8221 32.1314 44.0596 32.5489C44.1301 32.5725 44.2007 32.5961 44.2734 32.6204C48.7225 34.1109 48.7225 34.1109 49.1981 35.0487C49.2629 35.2641 49.2753 35.472 49.2773 35.6953C49.2779 35.7547 49.2779 35.7547 49.2785 35.8154C49.2662 36.2945 49.0499 36.7145 48.7172 37.0501C48.4205 37.26 48.1106 37.3977 47.7435 37.3754C47.2933 37.2858 46.8738 37.0786 46.4695 36.8662C46.3112 36.7904 46.1473 36.7403 45.9802 36.6877C45.8194 36.6325 45.6657 36.5675 45.5098 36.4997C45.1054 36.3292 44.6936 36.1882 44.277 36.0507C44.2386 36.0379 44.2002 36.0252 44.1607 36.0121C42.4777 35.454 40.7935 35.0076 39.0549 34.6589C38.9411 34.6359 38.8273 34.6125 38.7137 34.5884C38.3492 34.5117 37.9847 34.461 37.6148 34.4182C37.552 34.4108 37.4891 34.4034 37.4244 34.3958C36.9232 34.3375 36.4216 34.2827 35.9198 34.2295C35.852 34.2222 35.7841 34.2149 35.7142 34.2074C34.6399 34.0958 33.5761 34.0766 32.4966 34.0777C32.42 34.0778 32.3433 34.0778 32.2643 34.0779C31.1612 34.08 30.064 34.0822 28.9665 34.2072C28.8926 34.2157 28.8926 34.2157 28.8171 34.2242C27.5379 34.3714 26.2549 34.5194 25.0011 34.8204C24.8227 34.8627 24.6437 34.9023 24.4646 34.9416C22.3888 35.4015 20.2321 36.0224 18.3086 36.9474C17.3377 37.4118 17.3377 37.4118 16.8214 37.287C16.3091 37.0899 16.0445 36.7436 15.8115 36.2608C15.671 35.8277 15.6939 35.2911 15.8891 34.8809C16.2737 34.2298 16.942 33.9919 17.6062 33.7001C17.6682 33.6724 17.7302 33.6446 17.794 33.616C18.1558 33.4563 18.5182 33.3188 18.8943 33.1973C19.0503 33.145 19.2014 33.0868 19.3535 33.0241C21.7523 32.0398 24.4351 31.415 27.0039 31.1082C27.2131 31.0829 27.4193 31.0502 27.6266 31.0124C28.0892 30.9345 28.554 30.8931 29.0211 30.8551C29.0918 30.8493 29.0918 30.8493 29.1638 30.8434C30.1948 30.7607 31.2227 30.7415 32.2565 30.7456Z" fill="#FF0000"/>
<path d="M37.3118 37.6444C37.4759 37.6733 37.6404 37.6994 37.805 37.7254C38.4023 37.8207 38.9888 37.9269 39.5733 38.0846C39.7501 38.132 39.9275 38.1733 40.1063 38.2121C40.9699 38.3996 41.8067 38.6488 42.6467 38.9243C42.7411 38.9552 42.7411 38.9552 42.8374 38.9867C43.7953 39.302 44.7438 39.6255 45.6564 40.0597C45.713 40.0849 45.7696 40.1102 45.8279 40.1362C46.3685 40.3776 46.7646 40.6031 47.0206 41.1589C47.143 41.5245 47.1177 41.9098 46.9694 42.2632C46.7871 42.624 46.5781 42.9094 46.1875 43.0475C45.5659 43.1848 45.0109 42.882 44.455 42.6375C44.2044 42.5282 43.9512 42.4254 43.6979 42.323C43.6487 42.3031 43.5996 42.2832 43.5489 42.2627C38.9329 40.4044 33.6397 39.7983 28.7194 40.4182C28.6552 40.4262 28.5911 40.4342 28.525 40.4424C28.0901 40.4978 27.6567 40.5546 27.2295 40.6551C27.0138 40.7054 26.7984 40.7416 26.5794 40.7742C26.191 40.8329 25.8089 40.9105 25.4256 40.9971C25.3229 41.0203 25.3229 41.0203 25.2181 41.044C24.1637 41.2879 23.1303 41.6102 22.1098 41.9719C22.0348 41.9983 22.0348 41.9983 21.9583 42.0253C20.6506 42.3928 20.6506 42.3928 19.5132 43.0475C19.1119 43.0959 18.78 43.0538 18.4509 42.8085C18.0622 42.4315 17.9281 42.0729 17.9014 41.5312C17.9063 41.1099 18.1182 40.7832 18.3919 40.478C18.5247 40.3903 18.65 40.3151 18.7903 40.2427C18.8289 40.2223 18.8675 40.2019 18.9072 40.1809C19.254 40.0024 19.6103 39.863 19.9768 39.7322C20.1724 39.6618 20.3627 39.5818 20.5538 39.4997C20.943 39.3341 21.3381 39.1902 21.7373 39.0513C21.7926 39.032 21.7926 39.032 21.849 39.0123C22.5966 38.7529 23.3506 38.525 24.1163 38.3267C24.1756 38.3113 24.2349 38.2959 24.2959 38.2801C25.8571 37.8819 27.4714 37.595 29.0735 37.4303C29.1324 37.4242 29.1913 37.418 29.252 37.4117C31.8922 37.1519 34.6945 37.1718 37.3118 37.6444Z" fill="#FF0000"/>
<path d="M29.5935 21.791C29.7679 21.791 29.9422 21.791 30.1219 21.791C30.1219 21.8348 30.1219 21.8786 30.1219 21.9237C30.3399 21.9237 30.5579 21.9237 30.7825 21.9237C30.7825 21.9456 30.7825 21.9674 30.7825 21.99C30.2811 21.99 29.7797 21.99 29.2632 21.99C29.2632 21.9681 29.2632 21.9462 29.2632 21.9237C29.3722 21.9237 29.4812 21.9237 29.5935 21.9237C29.5935 21.8799 29.5935 21.8361 29.5935 21.791Z" fill="#ECECEC"/>
<path d="M53.374 8.45898C53.4612 8.48087 53.5484 8.50276 53.6383 8.52531C53.6383 8.56909 53.6383 8.61286 53.6383 8.65796C53.6818 8.65796 53.7254 8.65796 53.7704 8.65796C53.7486 8.5923 53.7268 8.52664 53.7043 8.45898C53.7479 8.45898 53.7915 8.45898 53.8364 8.45898C53.8555 8.51097 53.8746 8.56295 53.8942 8.61651C53.9586 8.79703 53.9586 8.79703 54.1006 8.92327C54.0625 8.91096 54.0244 8.89865 53.985 8.88596C53.8228 8.85427 53.7278 8.87304 53.5722 8.92327C53.5722 8.87949 53.5722 8.83572 53.5722 8.79062C53.5068 8.76873 53.4414 8.74684 53.374 8.72429C53.374 8.63674 53.374 8.54919 53.374 8.45898Z" fill="#1B1A1B"/>
<path d="M35.7368 41.0254C35.8525 41.0312 35.9681 41.0384 36.0836 41.0461C36.148 41.05 36.2124 41.0538 36.2787 41.0578C36.4634 41.0917 36.4634 41.0917 36.7277 41.2907C36.4661 41.2688 36.2045 41.2469 35.935 41.2244C35.935 41.1806 35.935 41.1368 35.935 41.0917C35.8696 41.0698 35.8042 41.0479 35.7368 41.0254Z" fill="#E3E3E3"/>
<path d="M48.1555 41.3574C48.3697 41.5159 48.5194 41.6363 48.6179 41.888C48.4532 41.8082 48.3087 41.7252 48.1555 41.6227C48.1555 41.5352 48.1555 41.4476 48.1555 41.3574Z" fill="#E5E3E4"/>
<path d="M36.7276 65.2348C36.5968 65.3005 36.5968 65.3005 36.4634 65.3675C36.4634 65.4112 36.4634 65.455 36.4634 65.5001C36.2672 65.4673 36.2672 65.4673 36.067 65.4338C36.2457 65.1805 36.4383 65.2184 36.7276 65.2348Z" fill="#DBDADB"/>
<path d="M37.9166 41.4895C37.9166 41.5332 37.9166 41.577 37.9166 41.6221C37.7267 41.6636 37.7267 41.6636 37.5203 41.6884C37.4767 41.6447 37.4331 41.6009 37.3882 41.5558C37.5908 41.4323 37.6919 41.4089 37.9166 41.4895Z" fill="#2A2829"/>
</g>
<defs>
<clipPath id="clip0_563_3124">
<rect width="65" height="65" fill="white" transform="translate(0 0.5)"/>
</clipPath>
</defs>
</svg>
