<svg width="65" height="66" viewBox="0 0 65 66" fill="none" xmlns="http://www.w3.org/2000/svg">
<rect y="0.5" width="65" height="65" rx="32.5" fill="white"/>
<path d="M44.5518 20.2313C44.8475 20.4929 45.1348 20.7625 45.4206 21.0348C45.4859 21.0957 45.5512 21.1566 45.6185 21.2193C46.8535 22.404 47.8165 23.8891 48.6081 25.3967C48.637 25.4516 48.6659 25.5065 48.6956 25.563C49.9286 27.9464 50.4931 30.579 50.4798 33.2502C50.4796 33.3161 50.4794 33.3819 50.4792 33.4497C50.4583 38.2191 48.4767 42.3755 45.1952 45.775C44.692 46.2719 44.1422 46.7015 43.5752 47.1224C43.5299 47.156 43.4845 47.1896 43.4378 47.2243C42.7089 47.7593 41.9421 48.2124 41.1426 48.6322C41.0877 48.6611 41.0328 48.69 40.9763 48.7197C38.5907 49.9539 35.9573 50.5169 33.2838 50.5039C33.2179 50.5037 33.152 50.5036 33.0841 50.5034C32.0334 50.4993 31.0173 50.4417 29.9862 50.226C29.9144 50.2116 29.8427 50.1972 29.7688 50.1824C28.5167 49.9262 27.3112 49.5593 26.1633 48.9923C26.0848 48.9536 26.0063 48.9149 25.9254 48.8749C25.7739 48.7989 25.6232 48.7213 25.4735 48.6417C25.4044 48.6066 25.3354 48.5714 25.2642 48.5353C25.174 48.4875 25.174 48.4875 25.0819 48.4388C24.5527 48.294 23.9348 48.5207 23.4177 48.6588C23.3427 48.6785 23.2677 48.6981 23.1905 48.7183C23.0289 48.7608 22.8673 48.8034 22.7058 48.8462C22.4503 48.9139 22.1947 48.9811 21.9391 49.0481C21.4891 49.1662 21.0393 49.2848 20.5894 49.4035C19.8681 49.5939 19.1466 49.7838 18.4249 49.9732C18.1729 50.0395 17.9209 50.1062 17.669 50.1729C17.5151 50.2133 17.3613 50.2538 17.2074 50.2942C17.1372 50.3129 17.067 50.3316 16.9947 50.3508C16.7332 50.4192 16.5009 50.4777 16.2294 50.4777C16.2788 49.9803 16.3806 49.5284 16.526 49.051C16.5706 48.9011 16.6152 48.7511 16.6597 48.6012C16.6833 48.5226 16.7068 48.444 16.731 48.363C16.8561 47.9426 16.9772 47.5211 17.0989 47.0997C17.2531 46.5653 17.4086 46.0314 17.5696 45.499C17.7002 45.067 17.8259 44.6338 17.9484 44.1995C17.9957 44.0352 18.0447 43.8715 18.0955 43.7083C18.4341 42.6503 18.4341 42.6503 18.2077 41.5976C18.065 41.3323 17.904 41.0835 17.7393 40.8311C17.6587 40.6639 17.5808 40.4953 17.508 40.3246C17.4748 40.2475 17.4417 40.1705 17.4076 40.0911C16.7929 38.6187 16.3699 37.1271 16.1455 35.5465C16.1301 35.4384 16.1146 35.3303 16.0987 35.2189C15.6142 30.6472 16.924 26.0562 19.8049 22.4713C20.7569 21.34 21.7526 20.3224 22.94 19.4411C22.9853 19.4074 23.0307 19.3738 23.0774 19.3391C23.8063 18.8042 24.5731 18.351 25.3726 17.9312C25.4275 17.9023 25.4824 17.8734 25.5389 17.8437C27.2555 16.9556 29.0894 16.4638 30.9928 16.1696C31.0819 16.1555 31.0819 16.1555 31.1728 16.1412C35.9594 15.4964 40.924 17.095 44.5518 20.2313ZM25.6249 26.5386C25.1596 27.2286 24.8452 27.9999 24.7854 28.8359C24.7801 28.9059 24.7748 28.9758 24.7694 29.0479C24.653 31.845 26.8289 34.4514 28.6021 36.3958C30.961 38.9474 34.3334 41.1225 37.9115 41.2954C39.1406 41.3125 40.3066 40.836 41.1898 39.9818C41.8027 39.3465 41.9767 38.5576 42.0443 37.696C42.0508 37.6175 42.0573 37.539 42.064 37.4581C41.8811 36.94 41.2343 36.7186 40.769 36.4876C40.6073 36.4109 40.4452 36.3349 40.2828 36.2595C40.198 36.2197 40.1132 36.1799 40.0259 36.1388C39.8586 36.0603 39.6913 35.9821 39.5238 35.9041C39.3308 35.8139 39.1387 35.7224 38.9469 35.6298C38.8531 35.585 38.7594 35.5402 38.6628 35.4941C38.5458 35.438 38.5458 35.438 38.4265 35.3807C38.172 35.2813 37.9783 35.2146 37.7034 35.211C37.4779 35.3808 37.4779 35.3808 37.284 35.6304C37.2089 35.7167 37.1339 35.803 37.0589 35.8893C36.9817 35.9811 36.9047 36.0731 36.8279 36.1652C36.7873 36.213 36.7467 36.2609 36.7049 36.3102C36.5355 36.5104 36.369 36.7107 36.2102 36.9195C36.0191 37.1678 35.9002 37.2963 35.5942 37.3818C35.1852 37.3946 34.9271 37.2876 34.563 37.1141C34.4974 37.0836 34.4317 37.0532 34.364 37.0218C32.2681 36.0233 30.029 34.246 29.1473 32.0235C29.155 31.6421 29.3379 31.4439 29.5825 31.1637C29.9443 30.7342 29.9443 30.7342 30.285 30.2881C30.3449 30.2072 30.3449 30.2072 30.4059 30.1246C30.5748 29.7239 30.5267 29.3116 30.3806 28.9126C30.3313 28.7921 30.2807 28.6722 30.229 28.5528C30.202 28.4883 30.1751 28.4238 30.1474 28.3574C30.0904 28.2218 30.033 28.0865 29.9749 27.9514C29.887 27.7465 29.8011 27.541 29.7154 27.3352C29.6595 27.2028 29.6035 27.0704 29.5474 26.9381C29.5221 26.8776 29.4967 26.8171 29.4706 26.7548C29.1225 25.9057 29.1225 25.9057 28.4763 25.3128C28.2344 25.2881 28.015 25.2777 27.7738 25.2814C27.6803 25.2799 27.6803 25.2799 27.585 25.2784C26.68 25.2832 26.1482 25.8522 25.6249 26.5386Z" fill="#FF0000"/>
</svg>
