<svg width="65" height="66" viewBox="0 0 65 66" fill="none" xmlns="http://www.w3.org/2000/svg">
<g clip-path="url(#clip0_562_158)">
<path d="M52.6972 7.78284C53.4224 8.40199 54.1348 9.03451 54.8418 9.67438C55.0311 9.84544 55.2204 10.0165 55.4154 10.1928C61.1506 15.6601 64.5594 23.6315 64.798 31.5132C64.9285 40.8606 62.1188 49.185 55.5663 55.9827C49.6155 62.0384 41.7413 65.5372 33.2382 65.7171C23.7148 65.7737 15.6123 62.4771 8.76377 55.8028C2.5251 49.5477 -0.200872 41.0688 -0.19769 32.3856C-0.173864 30.033 0.0658416 27.808 0.606863 25.5199C0.648044 25.344 0.689226 25.168 0.731655 24.9868C2.5865 17.3666 7.82154 9.87918 14.5225 5.76425C26.4138 -1.22907 41.8172 -1.31432 52.6972 7.78284ZM21.4567 19.9202C21.2588 19.9277 21.061 19.9352 20.8571 19.943C18.8918 20.0422 16.7096 20.1715 15.2181 21.5585C13.0253 24.5838 13.1133 28.9699 13.14 32.5473C13.144 33.1784 13.1401 33.8092 13.1353 34.4403C13.1323 36.5041 13.2308 38.5212 13.5523 40.5618C13.579 40.7386 13.6057 40.9153 13.6332 41.0975C13.9143 42.6856 14.4621 44.209 15.6979 45.2959C19.8736 47.8823 27.8824 46.6158 32.5999 46.6112C32.884 46.611 33.1682 46.6109 33.4609 46.6107C36.8505 46.6059 40.236 46.5833 43.6202 46.3791C43.9029 46.3638 44.1857 46.3486 44.477 46.3328C46.3857 46.1916 48.2862 45.8505 49.7495 44.5377C51.5023 41.3833 51.4575 37.6113 51.4393 34.0969C51.4366 33.4924 51.4392 32.8881 51.4424 32.2836C51.4442 30.3156 51.3761 28.3745 51.1512 26.4184C51.1316 26.2469 51.1121 26.0753 51.0919 25.8986C50.8383 23.917 50.2505 22.3281 48.6506 21.0634C46.7951 20.1015 44.8787 20.0267 42.8318 19.9357C42.598 19.9253 42.3642 19.9149 42.1233 19.9041C39.0999 19.7836 36.0752 19.788 33.0499 19.7931C32.2103 19.7946 31.3707 19.7937 30.5312 19.7923C27.5054 19.7879 24.4802 19.7919 21.4567 19.9202Z" fill="white"/>
<path d="M27.3401 25.7178C28.532 26.2378 29.6842 26.8073 30.8316 27.4268C30.9996 27.5171 31.1676 27.6074 31.3407 27.7004C31.6938 27.8905 32.0468 28.0808 32.3997 28.2715C32.9341 28.56 33.4692 28.8469 34.0045 29.1338C35.6456 30.0169 37.2612 30.9007 38.8023 31.9678C38.7182 32.6149 38.6587 32.8918 38.153 33.2951C37.9747 33.3899 37.7964 33.4846 37.6128 33.5822C37.4111 33.6914 37.2094 33.8007 37.0015 33.9132C36.6721 34.0848 36.6721 34.0848 36.336 34.2598C36.1113 34.3798 35.8865 34.4999 35.655 34.6236C35.1788 34.8772 34.7018 35.129 34.224 35.3793C33.4937 35.7623 32.766 36.1504 32.0386 36.5396C31.5758 36.7851 31.1128 37.0304 30.6497 37.2754C30.432 37.3913 30.2143 37.5071 29.99 37.6265C29.6829 37.7868 29.6829 37.7868 29.3697 37.9504C29.1906 38.0445 29.0116 38.1386 28.8271 38.2356C28.2554 38.4852 27.711 38.6111 27.1013 38.7178C26.8144 38.1171 26.8308 37.7382 26.8279 37.0674C26.8263 36.8288 26.8248 36.5902 26.8232 36.3444C26.823 36.086 26.8227 35.8277 26.8224 35.5615C26.8216 35.2971 26.8208 35.0326 26.82 34.7601C26.8188 34.2003 26.8183 33.6404 26.8183 33.0806C26.8178 32.2213 26.8134 31.3622 26.8089 30.5029C26.8082 29.96 26.8077 29.417 26.8075 28.874C26.8058 28.6157 26.8041 28.3574 26.8023 28.0912C26.803 27.8526 26.8038 27.614 26.8045 27.3682C26.8042 27.1576 26.8039 26.947 26.8035 26.7301C26.8625 26.2178 26.8625 26.2178 27.3401 25.7178Z" fill="#F8F6F7"/>
</g>
<defs>
<clipPath id="clip0_562_158">
<rect width="65" height="65" fill="white" transform="translate(0 0.5)"/>
</clipPath>
</defs>
</svg>
