<svg  viewBox="0 0 3502 4096" fill="none" xmlns="http://www.w3.org/2000/svg">
<path d="M267.449 134.664C270.893 135.96 274.342 137.034 277.874 138.063C282.939 139.583 287.621 141.519 292.394 143.785C294.86 144.935 297.339 145.953 299.874 146.938C310.908 151.292 321.476 156.682 332.055 162.024C333.863 162.932 335.679 163.824 337.495 164.715C346.508 169.143 355.258 173.976 364.012 178.891C366.514 180.287 369.037 181.645 371.562 183C382.315 188.851 392.929 195.033 402.999 202C407.412 204.999 411.832 207.928 416.437 210.625C427.138 216.972 437.427 224.11 447.581 231.293C450.54 233.382 453.519 235.441 456.499 237.5C464.762 243.218 464.762 243.218 468.312 245.688C469.389 246.436 469.389 246.436 470.488 247.199C473.293 249.21 476.049 251.281 478.807 253.356C482.602 256.201 486.428 259.004 490.249 261.813C493.5 264.207 496.75 266.603 499.999 269C500.615 269.454 501.23 269.908 501.865 270.375C508.134 275.005 514.224 279.792 520.23 284.758C524.007 287.816 527.903 290.7 531.804 293.598C537.613 297.965 543.304 302.485 548.999 307C549.878 307.695 550.758 308.39 551.663 309.105C553.813 310.849 555.88 312.649 557.937 314.5C560.364 316.651 562.757 318.582 565.499 320.313C566.324 320.869 567.149 321.426 567.999 322C567.999 322.66 567.999 323.32 567.999 324C568.555 324.246 569.111 324.492 569.683 324.746C572.443 326.24 574.652 328.051 577.062 330.063C578.032 330.868 579.003 331.674 580.003 332.504C580.992 333.328 581.981 334.151 582.999 335C584.831 336.502 586.664 338.002 588.499 339.5C589.845 340.602 589.845 340.602 591.218 341.727C593.153 343.308 595.091 344.886 597.031 346.461C598.01 347.258 598.99 348.054 599.999 348.875C600.886 349.594 601.773 350.314 602.687 351.055C604.568 352.637 606.281 354.249 607.999 356C609.178 357.051 610.367 358.092 611.562 359.125C614.796 361.931 617.966 364.796 621.124 367.688C623.759 370.072 626.31 372.344 629.312 374.25C632.313 376.204 634.481 378.453 636.999 381C638.928 382.803 640.862 384.596 642.812 386.375C643.34 386.858 643.867 387.34 644.411 387.837C647.904 391.023 651.435 394.16 655.007 397.258C658.232 400.078 661.402 402.96 664.581 405.832C666.598 407.641 668.634 409.42 670.687 411.188C674.717 414.693 678.603 418.347 682.499 422C687.585 426.767 692.704 431.466 697.999 436C702.485 439.87 706.863 443.752 710.999 448C714.729 451.789 718.577 455.414 722.499 459C726.423 462.587 730.24 466.24 733.999 470C736.483 472.351 738.991 474.675 741.499 477C745.742 480.932 749.909 484.909 753.999 489C755.152 490.016 756.317 491.019 757.499 492C760.513 494.502 763.237 497.224 765.999 500C767.182 501.183 767.182 501.183 768.389 502.39C813.999 548 813.999 548 816.626 550.661C819.005 553.084 819.005 553.084 821.874 555.313C825.023 557.879 827.582 560.834 830.191 563.938C832.353 566.404 834.673 568.691 836.999 571C838.197 572.192 839.395 573.385 840.593 574.578C841.254 575.235 841.915 575.893 842.596 576.571C845.59 579.552 848.582 582.535 851.573 585.519C853.146 587.087 854.72 588.654 856.295 590.22C858.583 592.496 860.868 594.775 863.152 597.055C863.849 597.747 864.546 598.439 865.264 599.151C868.918 602.805 872.406 606.524 875.715 610.494C877.679 612.797 879.831 614.89 881.999 617C887.689 622.614 893.263 628.208 898.449 634.297C899.92 635.913 901.42 637.262 903.124 638.625C906.267 641.221 908.547 643.754 910.999 647C910.999 647.66 910.999 648.32 910.999 649C911.547 649.21 912.095 649.42 912.659 649.637C915.842 651.491 918.032 654.077 920.437 656.812C921.372 657.862 922.308 658.91 923.245 659.957C923.707 660.473 924.169 660.99 924.645 661.522C926.69 663.754 928.856 665.863 930.999 668C933.753 670.918 936.465 673.876 939.183 676.828C941.664 679.514 944.154 682.153 946.757 684.723C948.59 686.584 949.982 688.254 951.374 690.438C953.614 693.685 956.16 695.944 959.199 698.43C961.706 700.616 963.78 703.084 965.933 705.613C968.477 708.551 971.107 711.401 973.749 714.25C974.792 715.376 975.835 716.503 976.878 717.629C977.398 718.19 977.918 718.751 978.453 719.329C984.954 726.355 991.408 733.424 997.8 740.551C999.335 742.26 1000.87 743.966 1002.42 745.668C1003.21 746.541 1004 747.413 1004.81 748.312C1005.52 749.092 1006.23 749.872 1006.96 750.676C1008.38 752.295 1009.76 753.952 1011.1 755.637C1013.01 758.103 1013.01 758.103 1015.5 760.5C1017.88 762.881 1019.9 765.373 1022 768C1022.76 768.763 1023.53 769.526 1024.31 770.312C1026.35 772.351 1028.24 774.388 1030.12 776.562C1033.19 780.1 1036.33 783.559 1039.5 787C1043.14 790.959 1046.74 794.951 1050.26 799.02C1052.27 801.311 1054.32 803.56 1056.37 805.812C1059.47 809.232 1062.42 812.72 1065.31 816.312C1070.16 822.31 1075.4 827.91 1080.65 833.549C1084.43 837.617 1088.08 841.599 1091.12 846.25C1092.85 849.073 1092.85 849.073 1095.37 850.875C1097.67 852.736 1098.94 854.145 1100.62 856.5C1103.28 860.177 1106.22 863.503 1109.31 866.812C1113.61 871.427 1117.66 876.173 1121.62 881.082C1124.37 884.45 1127.17 887.763 1130 891.062C1130.51 891.656 1131.02 892.249 1131.54 892.861C1134.64 896.46 1137.79 899.995 1141 903.5C1143.29 906.013 1145.42 908.447 1147.25 911.312C1149.2 914.307 1151.47 916.475 1154 919C1155.61 920.856 1157.19 922.732 1158.75 924.625C1159.18 925.145 1159.61 925.665 1160.05 926.201C1162.91 929.658 1165.74 933.141 1168.56 936.625C1171.49 940.219 1174.5 943.7 1177.62 947.125C1181.09 950.933 1184.31 954.855 1187.43 958.957C1188.88 960.839 1190.38 962.641 1191.94 964.438C1194 967 1194 967 1194 969C1194.89 969.373 1194.89 969.373 1195.8 969.754C1198.33 971.189 1199.47 972.597 1201.19 974.938C1203.85 978.481 1206.56 981.952 1209.37 985.375C1210.13 986.301 1210.9 987.226 1211.68 988.18C1212.44 989.11 1213.21 990.041 1214 991C1216.24 993.737 1218.48 996.474 1220.71 999.215C1222.32 1001.17 1223.94 1003.12 1225.57 1005.07C1226.39 1006.06 1227.21 1007.04 1228.06 1008.06C1228.82 1008.96 1229.57 1009.86 1230.35 1010.79C1232 1013 1232 1013 1232 1015C1232.99 1015.33 1233.98 1015.66 1235 1016C1236.29 1017.46 1236.29 1017.46 1237.62 1019.38C1240.01 1022.67 1242.48 1025.86 1245.06 1029C1245.82 1029.93 1246.59 1030.85 1247.37 1031.8C1247.79 1032.31 1248.2 1032.81 1248.63 1033.33C1262.09 1049.71 1262.09 1049.71 1268.53 1058.11C1271.63 1062.11 1274.84 1066.03 1278.06 1069.94C1282.1 1074.87 1286.05 1079.86 1289.98 1084.87C1292.65 1088.29 1295.34 1091.69 1298.06 1095.06C1301.53 1099.38 1304.91 1103.76 1308.27 1108.16C1311.62 1112.54 1315.08 1116.82 1318.6 1121.07C1320 1123 1320 1123 1320 1125C1320.66 1125 1321.32 1125 1322 1125C1323.37 1126.51 1323.37 1126.51 1324.93 1128.61C1325.5 1129.37 1326.07 1130.12 1326.65 1130.9C1327.24 1131.69 1327.83 1132.49 1328.44 1133.31C1329.6 1134.87 1330.77 1136.43 1331.93 1137.99C1332.45 1138.68 1332.97 1139.38 1333.5 1140.1C1334.9 1141.87 1336.4 1143.4 1338 1145C1338.43 1145.74 1338.87 1146.49 1339.31 1147.25C1341.16 1150.26 1343.3 1152.68 1345.69 1155.25C1347 1157 1347 1157 1347.49 1159.15C1347.66 1159.76 1347.83 1160.37 1348 1161C1348.99 1161.33 1349.98 1161.66 1351 1162C1352.33 1163.44 1352.33 1163.44 1353.67 1165.28C1354.17 1165.95 1354.66 1166.63 1355.18 1167.32C1355.7 1168.04 1356.21 1168.76 1356.75 1169.5C1357.82 1170.96 1358.89 1172.42 1359.97 1173.88C1360.49 1174.59 1361 1175.3 1361.54 1176.03C1363.9 1179.22 1366.39 1182.31 1368.89 1185.4C1370 1187 1370 1187 1370 1189C1370.66 1189 1371.32 1189 1372 1189C1373.3 1190.72 1373.3 1190.72 1374.75 1193.06C1376.57 1195.99 1378.5 1198.63 1380.76 1201.22C1384.44 1205.43 1387.71 1209.92 1391 1214.44C1392.19 1216.06 1393.37 1217.69 1394.56 1219.31C1395.42 1220.48 1395.42 1220.48 1396.29 1221.68C1398.46 1224.62 1400.69 1227.51 1402.93 1230.39C1404 1232 1404 1232 1404 1234C1404.99 1234.33 1405.98 1234.66 1407 1235C1408.62 1236.94 1408.62 1236.94 1410.44 1239.56C1411.13 1240.55 1411.83 1241.53 1412.55 1242.55C1412.93 1243.1 1413.32 1243.65 1413.72 1244.21C1416.15 1247.6 1418.67 1250.92 1421.19 1254.25C1423.13 1256.83 1425.07 1259.41 1427 1262C1427.49 1262.65 1427.97 1263.3 1428.47 1263.97C1432 1268.77 1432 1268.77 1432 1271C1432.66 1271 1433.32 1271 1434 1271C1435.6 1273.05 1437.09 1275.1 1438.56 1277.25C1439.47 1278.54 1440.37 1279.84 1441.28 1281.13C1441.73 1281.78 1442.19 1282.43 1442.66 1283.11C1444.59 1285.84 1446.6 1288.51 1448.62 1291.19C1452.13 1295.83 1455.57 1300.52 1458.98 1305.23C1460.58 1307.42 1462.2 1309.59 1463.83 1311.76C1467.72 1316.93 1471.47 1322.2 1475.23 1327.46C1478.34 1331.79 1481.56 1335.93 1485 1340C1486.01 1341.66 1487.01 1343.33 1488 1345C1489.35 1346.86 1490.75 1348.68 1492.14 1350.51C1494.41 1353.56 1496.61 1356.65 1498.81 1359.75C1501.9 1364.09 1505.02 1368.39 1508.25 1372.62C1512.97 1378.87 1517.43 1385.29 1521.91 1391.71C1525.57 1396.97 1529.27 1402.18 1533.06 1407.34C1535.91 1411.25 1538.71 1415.2 1541.5 1419.14C1543.33 1421.72 1545.19 1424.24 1547.18 1426.7C1549.06 1429.08 1550.47 1431.58 1551.93 1434.24C1553.01 1436.02 1554.2 1437.54 1555.56 1439.12C1557.73 1441.69 1559.29 1444.12 1561 1447C1564.6 1452.34 1568.39 1457.55 1572.19 1462.75C1574.88 1466.45 1577.48 1470.18 1580 1474C1584.29 1480.23 1588.71 1486.37 1593.2 1492.46C1594.94 1494.91 1596.47 1497.42 1598 1500C1602.26 1506.55 1606.67 1513 1611.16 1519.39C1616.83 1527.45 1622.4 1535.56 1627.84 1543.77C1632.34 1550.55 1636.95 1557.26 1641.56 1563.97C1645.25 1569.36 1648.82 1574.82 1652.31 1580.34C1654.89 1584.4 1657.57 1588.39 1660.25 1592.38C1663.27 1596.87 1666.23 1601.35 1669 1606C1670.05 1607.53 1671.11 1609.05 1672.19 1610.56C1677.41 1617.97 1682.53 1625.43 1687.12 1633.25C1689.36 1637.06 1691.85 1640.51 1694.56 1643.99C1696.6 1646.84 1698.2 1649.89 1699.85 1652.97C1701.31 1655.54 1703.13 1657.71 1705 1660C1705.99 1661.72 1706.98 1663.45 1707.94 1665.19C1709.01 1667.01 1710.18 1668.68 1711.44 1670.38C1713.32 1672.95 1714.92 1675.57 1716.44 1678.38C1719.01 1683.12 1721.96 1687.54 1725 1692C1726.38 1694.04 1727.75 1696.08 1729.12 1698.12C1729.77 1699.08 1730.41 1700.03 1731.07 1701.01C1732.79 1703.67 1734.38 1706.38 1735.93 1709.14C1737.86 1712.51 1739.94 1715.78 1742 1719.06C1742.42 1719.74 1742.85 1720.43 1743.29 1721.13C1745.17 1724.14 1747.08 1727.12 1749.06 1730.06C1750.81 1732.72 1752.41 1735.43 1753.97 1738.2C1755.74 1741.29 1757.66 1744.3 1759.56 1747.31C1767.04 1759.22 1774.42 1771.18 1781.46 1783.35C1785.14 1789.69 1788.96 1795.95 1792.81 1802.19C1796.88 1808.78 1800.87 1815.42 1804.84 1822.07C1806.02 1824.04 1807.21 1826 1808.39 1827.97C1811.92 1833.81 1815.42 1839.64 1818.69 1845.62C1822.86 1853.2 1827.13 1860.72 1831.78 1868C1833.86 1871.41 1835.7 1874.95 1837.59 1878.46C1839.04 1881.16 1839.04 1881.16 1841.12 1884.19C1842.95 1886.93 1844.36 1889.75 1845.82 1892.7C1847.96 1896.88 1850.34 1900.93 1852.69 1905C1853.76 1906.87 1854.84 1908.75 1855.91 1910.62C1856.44 1911.54 1856.97 1912.45 1857.51 1913.4C1863.04 1923.05 1868.44 1932.76 1873.81 1942.5C1874.5 1943.74 1874.5 1943.74 1875.19 1945C1877.6 1949.37 1879.91 1953.76 1882.09 1958.24C1883.04 1960.08 1884.11 1961.78 1885.25 1963.5C1887.67 1967.28 1889.65 1971.23 1891.62 1975.25C1894.74 1981.6 1898.06 1987.82 1901.5 1994C1905.16 2000.59 1908.68 2007.22 1912.01 2013.99C1914.58 2019.21 1917.27 2024.36 1920 2029.5C1924.13 2037.29 1928.12 2045.15 1932.03 2053.05C1933.35 2055.7 1934.67 2058.35 1936 2060.99C1936.66 2062.33 1937.33 2063.66 1938 2065C1939.66 2068.34 1941.34 2071.67 1943.03 2075C1946.74 2082.29 1950.2 2089.63 1953.43 2097.14C1956.07 2103.26 1959.02 2109.22 1962.06 2115.16C1963.8 2118.58 1965.53 2122.01 1967.25 2125.44C1967.58 2126.09 1967.91 2126.74 1968.25 2127.41C1970.33 2131.54 1972.19 2135.74 1974 2140C1974.97 2142.11 1975.95 2144.21 1976.94 2146.31C1978.76 2150.24 1980.5 2154.16 1982.06 2158.19C1983.36 2161.52 1984.81 2164.69 1986.44 2167.88C1989.29 2173.45 1991.64 2179.2 1994 2185C1997.42 2193.42 2001.09 2201.71 2004.88 2209.97C2006.83 2214.27 2008.53 2218.51 2010 2223C2011.07 2225.59 2012.23 2228.13 2013.37 2230.69C2015.81 2236.18 2018.05 2241.68 2020.03 2247.35C2021.12 2250.32 2022.33 2253.22 2023.56 2256.12C2024.98 2259.49 2026.33 2262.83 2027.44 2266.31C2028.71 2270.29 2030.24 2274.14 2031.81 2278C2034.38 2284.3 2036.7 2290.67 2038.91 2297.1C2040.02 2300.34 2041.21 2303.48 2042.56 2306.63C2043.87 2309.7 2044.88 2312.68 2045.81 2315.88C2047.31 2320.86 2048.94 2325.78 2050.69 2330.69C2050.93 2331.38 2051.18 2332.07 2051.43 2332.79C2051.98 2334.32 2052.52 2335.85 2053.07 2337.38C2058.01 2351.29 2062.92 2365.18 2066.95 2379.38C2067.92 2382.74 2068.99 2386.06 2070.12 2389.38C2071.63 2393.8 2072.89 2398.23 2074.08 2402.75C2075.52 2407.85 2077.18 2412.89 2078.84 2417.92C2080.12 2421.88 2081.2 2425.77 2081.97 2429.86C2083.05 2435.61 2084.74 2441.15 2086.44 2446.75C2088.66 2454.21 2090.69 2461.61 2092.19 2469.26C2093.29 2474.36 2094.65 2479.39 2096 2484.44C2097.97 2491.87 2099.74 2499.27 2101.16 2506.84C2102.02 2511.28 2103.09 2515.68 2104.14 2520.08C2106.61 2530.5 2108.79 2540.88 2110.46 2551.45C2111.39 2557.39 2112.41 2563.3 2113.51 2569.21C2113.64 2569.92 2113.77 2570.64 2113.91 2571.38C2114.44 2574.22 2114.97 2577.07 2115.51 2579.91C2117.11 2588.29 2118.37 2596.64 2119.26 2605.12C2119.82 2610.49 2120.48 2615.84 2121.22 2621.18C2121.32 2621.95 2121.43 2622.71 2121.54 2623.49C2121.96 2626.58 2122.39 2629.66 2122.82 2632.75C2134.46 2716.3 2135.49 2806.63 2120.08 2901.33C2119.25 2906.22 2118.61 2911.09 2118.05 2916.02C2117.01 2924.72 2115.15 2933.16 2113.19 2941.69C2112.83 2943.28 2112.47 2944.87 2112.11 2946.46C2111.23 2950.29 2110.35 2954.13 2109.47 2957.96C2109.04 2959.8 2108.62 2961.64 2108.2 2963.49C2106.08 2972.79 2103.83 2981.96 2100.89 2991.05C2099.97 2994.1 2099.28 2997.14 2098.62 3000.25C2097.29 3006.27 2095.36 3011.94 2093.26 3017.72C2091.76 3021.82 2090.37 3025.93 2089.12 3030.12C2084.95 3043.96 2080.24 3057.67 2074.37 3070.87C2072.54 3075.05 2070.95 3079.3 2069.37 3083.57C2067.41 3088.46 2065.2 3093.22 2063 3098C2062.52 3099.06 2062.04 3100.11 2061.54 3101.2C2054.77 3116.03 2047.84 3130.7 2040 3145C2039.59 3145.75 2039.18 3146.5 2038.76 3147.27C2032.73 3158.31 2026.45 3169.2 2020 3180C2019.53 3180.79 2019.06 3181.58 2018.57 3182.4C2015.75 3187.07 2012.73 3191.62 2009.75 3196.19C2009.11 3197.18 2008.46 3198.17 2007.8 3199.19C2003.65 3205.55 1999.38 3211.8 1995 3218C1993.99 3219.45 1992.98 3220.9 1991.97 3222.34C1987.11 3229.3 1982.22 3236.15 1976.82 3242.71C1974.16 3246.06 1971.8 3249.6 1969.44 3253.16C1968.97 3253.77 1968.49 3254.38 1968 3255C1967.34 3255 1966.68 3255 1966 3255C1965.75 3255.56 1965.5 3256.11 1965.25 3256.69C1963.77 3259.42 1961.99 3261.61 1960 3264C1959.2 3264.96 1958.41 3265.91 1957.59 3266.89C1957.17 3267.4 1956.75 3267.9 1956.32 3268.42C1954.95 3270.06 1953.6 3271.72 1952.25 3273.39C1951.36 3274.49 1950.46 3275.59 1949.56 3276.69C1948.74 3277.7 1947.91 3278.72 1947.07 3279.76C1946.38 3280.5 1945.7 3281.24 1945 3282C1944.34 3282 1943.68 3282 1943 3282C1942.79 3282.72 1942.59 3283.44 1942.37 3284.19C1940.9 3287.2 1939.26 3288.53 1936.64 3290.55C1934.14 3292.75 1932.37 3295.41 1930.42 3298.1C1928.5 3300.66 1926.32 3302.79 1924 3305C1922.5 3306.5 1921 3308 1919.5 3309.5C1913.33 3315.67 1907.17 3321.83 1901 3328C1900.22 3328.79 1899.44 3329.57 1898.64 3330.38C1895.55 3333.45 1892.38 3336.42 1889.19 3339.38C1888.25 3340.24 1888.25 3340.24 1887.3 3341.12C1883.56 3344.59 1879.78 3348 1875.91 3351.34C1873.64 3353.32 1871.41 3355.35 1869.19 3357.38C1860.78 3364.96 1851.85 3371.94 1843 3379C1842.14 3379.71 1841.27 3380.43 1840.38 3381.16C1838 3383 1838 3383 1835.25 3384.06C1834.51 3384.37 1833.76 3384.68 1833 3385C1832.67 3385.99 1832.34 3386.98 1832 3388C1830.28 3389.4 1830.28 3389.4 1827.94 3390.94C1822.47 3394.63 1817.22 3398.56 1811.97 3402.56C1807.11 3406.25 1802.1 3409.65 1797 3413C1795.49 3414.01 1793.97 3415.02 1792.46 3416.04C1790.95 3417.04 1789.45 3418.05 1787.94 3419.06C1787.19 3419.57 1786.44 3420.07 1785.66 3420.59C1781.44 3423.41 1777.19 3426.15 1772.88 3428.83C1770 3430.62 1767.16 3432.47 1764.31 3434.31C1754.07 3440.91 1743.76 3447.27 1733 3453C1727.7 3455.85 1722.43 3458.71 1717.31 3461.88C1711.11 3465.63 1704.62 3468.76 1698.11 3471.95C1696.01 3472.99 1693.92 3474.05 1691.84 3475.11C1684.93 3478.62 1678.04 3481.9 1670.85 3484.79C1667.88 3486.05 1665.05 3487.46 1662.19 3488.94C1656.47 3491.85 1650.6 3494.24 1644.64 3496.57C1641.51 3497.8 1638.41 3499.07 1635.31 3500.38C1616.73 3508.15 1598.07 3515.53 1578.82 3521.49C1574.04 3522.97 1569.3 3524.58 1564.56 3526.19C1558.85 3528.12 1553.16 3529.79 1547.28 3531.16C1543 3532.26 1538.79 3533.57 1534.56 3534.88C1524.95 3537.81 1515.26 3540.19 1505.46 3542.43C1503.15 3542.97 1500.84 3543.52 1498.53 3544.09C1490.96 3545.95 1483.4 3547.53 1475.7 3548.72C1471.03 3549.46 1466.41 3550.32 1461.78 3551.31C1421.66 3559.72 1379.95 3562.98 1339 3564C1338.32 3564.02 1337.64 3564.03 1336.93 3564.05C1326.95 3564.29 1316.98 3564.25 1307 3564C1305.95 3563.97 1305.95 3563.97 1304.88 3563.95C1262.88 3562.85 1220.54 3558.77 1179.48 3549.75C1175.52 3548.9 1171.54 3548.14 1167.55 3547.4C1157.94 3545.59 1148.57 3543.08 1139.16 3540.43C1134.83 3539.22 1130.49 3538.12 1126.12 3537.06C1109.45 3532.93 1093.13 3527.94 1077.08 3521.79C1073.95 3520.6 1070.79 3519.49 1067.62 3518.38C1041.4 3509.02 1015.8 3497.65 990.999 3485C989.66 3484.33 988.32 3483.67 986.98 3483C980.105 3479.6 973.278 3476.14 966.566 3472.42C964.831 3471.46 963.088 3470.51 961.339 3469.58C954.041 3465.67 947.021 3461.38 939.999 3457C937.771 3455.62 935.542 3454.25 933.312 3452.88C932.229 3452.21 931.146 3451.54 930.031 3450.85C927.473 3449.29 924.898 3447.76 922.312 3446.25C911.705 3439.91 901.484 3432.83 891.402 3425.7C888.533 3423.67 885.641 3421.68 882.749 3419.69C877.938 3416.36 873.146 3413.01 868.374 3409.62C867.486 3409 867.486 3409 866.58 3408.36C863.83 3406.4 861.336 3404.43 858.999 3402C857.808 3401.06 856.598 3400.15 855.374 3399.25C842.141 3389.43 829.286 3379.04 817.144 3367.89C814.442 3365.51 811.588 3363.39 808.675 3361.27C806.588 3359.69 804.817 3357.88 802.999 3356C802.195 3355.36 801.391 3354.72 800.562 3354.06C797.835 3351.87 795.443 3349.5 792.999 3347C789.258 3343.21 785.415 3339.55 781.499 3335.94C780.944 3335.42 780.388 3334.9 779.816 3334.37C777.348 3332.09 774.88 3329.91 772.249 3327.81C769.401 3325.52 767.309 3322.83 764.999 3320C762.165 3317.01 759.19 3314.3 756.062 3311.62C752.834 3308.83 750.07 3305.9 747.355 3302.61C745.377 3300.26 743.198 3298.15 740.999 3296C736.739 3291.83 732.684 3287.7 728.999 3283C727.354 3281.31 725.686 3279.65 723.999 3278C720.734 3274.81 717.846 3271.56 714.999 3268C714.257 3267.28 713.514 3266.56 712.749 3265.81C710.42 3263.43 708.423 3261.05 706.374 3258.44C703.222 3254.43 699.91 3250.66 696.437 3246.94C692.68 3242.9 689.152 3238.78 685.835 3234.37C684.377 3232.49 682.89 3230.66 681.351 3228.85C680.66 3228.03 680.66 3228.03 679.955 3227.2C679.04 3226.12 678.121 3225.05 677.198 3223.98C673.999 3220.22 673.999 3220.22 673.999 3218C673.339 3218 672.679 3218 671.999 3218C670.71 3216.54 670.71 3216.54 669.374 3214.62C668.705 3213.69 668.705 3213.69 668.023 3212.73C666.999 3211 666.999 3211 666.999 3209C666.339 3209 665.679 3209 664.999 3209C663.725 3207.43 662.53 3205.79 661.374 3204.12C658.681 3200.32 655.94 3196.61 652.999 3193C649.508 3188.69 646.253 3184.25 643.019 3179.74C640.382 3176.16 637.59 3172.72 634.761 3169.29C632.959 3166.95 631.511 3164.54 629.999 3162C628.412 3159.71 626.813 3157.44 625.187 3155.19C624.744 3154.57 624.301 3153.95 623.845 3153.31C621.041 3149.41 618.194 3145.55 615.253 3141.75C613.695 3139.58 612.372 3137.29 610.999 3135C609.971 3133.51 608.929 3132.03 607.874 3130.56C604.965 3126.44 602.206 3122.25 599.499 3118C596.873 3113.87 594.204 3109.8 591.374 3105.81C586.557 3099.02 582.139 3092.01 578.028 3084.77C576.403 3081.97 574.638 3079.27 572.874 3076.56C568.238 3069.4 563.703 3062.18 559.201 3054.93C558.035 3053.06 556.865 3051.18 555.695 3049.31C554.983 3048.16 554.272 3047.02 553.562 3045.88C552.944 3044.88 552.327 3043.89 551.691 3042.87C549.999 3040 549.999 3040 548.46 3036.91C547.15 3034.3 545.733 3032.01 544.062 3029.62C541.757 3026.23 539.824 3022.84 538.046 3019.14C534.749 3012.39 530.989 3005.93 526.999 2999.56C523.883 2994.55 521.144 2989.48 518.566 2984.18C514.02 2974.96 509.014 2965.97 503.999 2957C500.094 2950.01 496.418 2942.93 492.891 2935.75C491.332 2932.59 489.728 2929.49 487.945 2926.45C486.019 2923.03 484.51 2919.62 482.999 2916C481.592 2912.9 480.142 2909.83 478.687 2906.75C478.291 2905.91 477.895 2905.07 477.487 2904.21C474.93 2898.84 472.249 2893.58 469.288 2888.42C467.658 2885.36 466.35 2882.2 464.999 2879C464.009 2876.85 463.008 2874.7 461.999 2872.56C455.129 2857.91 448.381 2843.21 441.858 2828.4C439.245 2822.49 436.508 2816.65 433.7 2810.83C431.828 2806.92 430.212 2802.98 428.725 2798.91C427.638 2796.05 426.32 2793.32 424.999 2790.56C423.289 2786.91 421.691 2783.35 420.499 2779.5C419.015 2774.72 416.874 2770.3 414.695 2765.8C412.689 2761.47 411.067 2757 409.373 2752.55C407.051 2746.55 404.546 2740.62 402.062 2734.69C398.278 2725.61 394.603 2716.51 391.222 2707.28C390.055 2704.15 388.802 2701.07 387.499 2698C383.672 2688.94 380.332 2679.69 376.98 2670.44C376.631 2669.48 376.282 2668.51 375.922 2667.52C375.243 2665.64 374.566 2663.77 373.891 2661.89C372.001 2656.66 370.016 2651.48 367.932 2646.32C364.03 2636.62 360.566 2626.8 357.327 2616.87C355.24 2610.55 352.85 2604.38 350.396 2598.19C348.631 2593.71 347.1 2589.26 345.808 2584.62C344.696 2581.02 343.344 2577.52 341.999 2574C340.356 2569.7 338.757 2565.43 337.499 2561C336.26 2556.64 334.682 2552.42 333.062 2548.19C330.794 2542.26 328.807 2536.3 326.995 2530.21C325.927 2526.77 324.73 2523.39 323.499 2520C321.492 2514.47 319.721 2508.9 318.027 2503.27C316.964 2499.89 315.78 2496.57 314.562 2493.25C312.386 2487.26 310.559 2481.23 308.804 2475.11C307.668 2471.18 306.446 2467.33 304.999 2463.5C303.021 2458.26 301.475 2452.92 299.925 2447.54C298.557 2442.82 297.079 2438.16 295.499 2433.5C293.437 2427.42 291.589 2421.29 289.804 2415.12C288.62 2411.05 287.368 2407.02 285.999 2403C282.81 2393.58 280.152 2384 277.4 2374.45C276.612 2371.72 275.822 2368.98 275.032 2366.25C274.452 2364.24 273.874 2362.23 273.297 2360.22C271.304 2353.3 269.204 2346.44 266.853 2339.63C265.975 2336.92 265.277 2334.21 264.624 2331.44C263.352 2326.12 261.745 2320.95 260.062 2315.75C257.935 2309.16 256.074 2302.58 254.468 2295.85C253.335 2291.16 251.978 2286.59 250.499 2282C248.822 2276.79 247.34 2271.57 246.062 2266.25C244.584 2260.1 242.852 2254.05 240.999 2248C239.154 2241.97 237.418 2235.94 235.937 2229.81C234.607 2224.32 233.126 2218.91 231.499 2213.5C229.667 2207.4 228.026 2201.28 226.519 2195.09C225.279 2190.03 223.912 2185.01 222.499 2180C220.727 2173.71 219.074 2167.4 217.521 2161.04C216.266 2155.96 214.867 2150.92 213.437 2145.88C211.97 2140.69 210.634 2135.53 209.562 2130.25C208.307 2124.08 206.685 2118.06 204.999 2112C203.038 2104.95 201.292 2097.94 199.847 2090.76C198.505 2084.81 196.831 2078.94 195.156 2073.08C193.912 2068.65 192.826 2064.28 192.054 2059.75C190.967 2053.45 189.352 2047.3 187.715 2041.12C186.809 2037.7 185.918 2034.27 185.027 2030.84C184.85 2030.17 184.674 2029.49 184.492 2028.79C182.381 2020.66 180.441 2012.49 178.537 2004.31C178.002 2002.01 177.459 1999.72 176.913 1997.43C175.415 1991.14 173.949 1984.84 172.624 1978.5C171.219 1971.82 169.611 1965.2 167.999 1958.56C166.102 1950.74 164.348 1942.94 162.839 1935.04C161.749 1929.59 160.38 1924.21 159.062 1918.81C156.996 1910.35 155.115 1901.88 153.471 1893.32C152.294 1887.28 150.903 1881.3 149.437 1875.31C147.766 1868.48 146.363 1861.68 145.236 1854.74C143.945 1847.13 142.052 1839.65 140.156 1832.17C138.887 1827.07 137.807 1822.04 137.062 1816.84C135.857 1808.54 133.938 1800.42 132.062 1792.25C129.839 1782.56 127.74 1772.9 126.07 1763.1C124.917 1756.38 123.478 1749.72 121.999 1743.06C120.176 1734.72 118.482 1726.4 117.185 1717.95C115.865 1709.66 113.995 1701.47 112.156 1693.27C110.901 1687.59 109.808 1681.96 109.034 1676.2C107.835 1667.33 105.915 1658.63 104.031 1649.89C102.171 1641.22 100.635 1632.64 99.5403 1623.83C98.528 1616.66 96.9819 1609.59 95.4993 1602.5C93.5071 1592.98 91.745 1583.54 90.5403 1573.88C89.3839 1565.59 87.6514 1557.4 86.0311 1549.19C84.4626 1541.22 82.9686 1533.3 82.0267 1525.22C80.723 1514.06 78.5673 1503.05 76.5337 1492.01C74.4554 1480.68 72.5733 1469.38 71.0747 1457.96C69.9109 1449.14 68.4514 1440.39 66.9368 1431.62C65.4788 1423.19 64.0513 1414.77 63.0345 1406.26C62.2807 1399.97 61.3577 1393.73 60.3431 1387.48C60.194 1386.56 60.045 1385.64 59.8914 1384.7C59.2755 1380.91 58.6556 1377.13 58.0311 1373.35C56.3242 1362.99 54.7871 1352.68 53.775 1342.23C52.6652 1331.13 50.7827 1320.13 49.0311 1309.12C47.3199 1298.32 45.7771 1287.56 44.775 1276.68C43.642 1264.7 41.7709 1252.82 40.0311 1240.92C38.3098 1229.11 36.7689 1217.35 35.775 1205.45C34.6459 1192.31 32.7742 1179.25 31.0311 1166.18C29.2977 1153.13 27.7682 1140.13 26.809 1127C26.1181 1117.85 25.1474 1108.73 24.1243 1099.61C24.039 1098.85 23.9536 1098.08 23.8657 1097.3C23.0717 1090.2 22.2673 1083.1 21.4583 1076C19.5504 1059.24 17.7717 1042.52 16.7108 1025.68C16.1524 1016.89 15.4201 1008.11 14.597 999.34C14.5353 998.68 14.4736 998.02 14.4101 997.339C14.1575 994.637 13.9043 991.934 13.6504 989.232C11.0876 961.935 9.02519 934.659 7.60854 907.276C7.10686 897.71 6.53346 888.148 5.94573 878.586C5.77906 875.874 5.61321 873.161 5.44759 870.448C4.78601 859.609 4.78599 859.609 4.11477 848.77C3.40773 837.42 2.75035 826.068 2.14513 814.712C2.00159 812.042 1.85293 809.372 1.70388 806.702C-0.666124 763.445 -0.341825 720.123 -0.314373 676.818C-0.31091 669.485 -0.320444 662.153 -0.336864 654.821C-0.465711 595.902 0.773863 537.605 6.04229 478.887C6.64488 472.163 7.20323 465.441 7.6751 458.707C9.26382 436.473 12.3299 414.546 15.7215 392.519C16.5927 386.825 17.3892 381.127 18.1329 375.416C19.4678 365.193 21.2425 355.181 23.4993 345.125C24.0967 342.42 24.689 339.714 25.2806 337.008C25.4985 336.019 25.4985 336.019 25.7209 335.01C26.7602 330.248 27.6616 325.469 28.5267 320.672C29.6745 314.364 31.1837 308.254 33.0618 302.125C34.579 297.111 36.0154 292.166 36.972 287.012C37.9772 281.729 39.61 276.76 41.3743 271.688C42.0124 269.822 42.6491 267.956 43.2845 266.09C43.5863 265.204 43.8881 264.318 44.199 263.406C45.1516 260.542 45.9885 257.653 46.8118 254.75C57.8459 218.502 76.6333 180.699 103.999 154C104.548 153.417 105.098 152.835 105.663 152.234C114.198 143.313 123.99 136.521 134.999 131C135.878 130.514 136.758 130.028 137.663 129.527C177.309 111.376 228.081 119.589 267.449 134.664Z" fill="#D1DD2B"/>
<path d="M3408.23 -0.446086C3410.63 -0.437522 3413.03 -0.466565 3415.44 -0.498088C3433.45 -0.580903 3449.46 4.83226 3462.66 17.5C3473.27 28.8361 3479.44 41.6757 3485 56C3485.29 56.7429 3485.58 57.4859 3485.88 58.2514C3494.78 81.6717 3498.37 107.185 3501 132C3501.09 132.778 3501.17 133.556 3501.26 134.357C3502.29 144.792 3502.2 155.252 3502.24 165.727C3502.24 166.778 3502.25 167.83 3502.25 168.914C3502.27 174.522 3502.29 180.13 3502.3 185.738C3502.3 190.261 3502.33 194.785 3502.36 199.308C3502.65 240.779 3500.05 281.706 3494.93 322.855C3494.27 328.269 3493.77 333.676 3493.34 339.112C3492.31 351.956 3490.55 364.595 3488.5 377.312C3487.88 381.204 3487.27 385.095 3486.66 388.988C3486.51 389.933 3486.36 390.879 3486.21 391.853C3485.33 397.567 3484.61 403.275 3484.03 409.027C3482.96 419.54 3480.96 429.873 3479 440.25C3478.29 444.046 3477.58 447.843 3476.88 451.641C3476.71 452.552 3476.54 453.464 3476.36 454.404C3475.45 459.345 3474.64 464.281 3473.97 469.262C3472.86 477.439 3471.17 485.485 3469.5 493.562C3467.01 505.541 3467.01 505.541 3465 517.605C3464 524.374 3462.54 531.016 3461.03 537.683C3457.95 551.253 3457.95 551.253 3455.44 564.937C3454.12 572.914 3452.19 580.712 3450.26 588.561C3448.66 595.12 3447.21 601.681 3445.94 608.312C3444.48 615.903 3442.71 623.373 3440.78 630.857C3439.55 635.676 3438.48 640.483 3437.56 645.375C3436.17 652.665 3434.19 659.748 3432.19 666.891C3430.76 672.03 3429.51 677.121 3428.56 682.375C3427.13 690.143 3424.82 697.608 3422.55 705.169C3420.58 711.819 3419.05 718.347 3417.81 725.172C3416.6 730.924 3414.92 736.525 3413.26 742.164C3411.7 747.502 3410.24 752.844 3408.94 758.25C3407.43 764.444 3405.69 770.539 3403.86 776.643C3402.43 781.421 3401.17 786.216 3400 791.062C3398.53 797.133 3396.77 803.057 3394.86 809C3393.38 813.629 3392.14 818.277 3391 823C3389.53 829.113 3387.78 835.084 3385.86 841.068C3384.43 845.535 3383.17 850.021 3382 854.562C3380.35 860.905 3378.33 867.062 3376.22 873.262C3375.03 876.922 3374.02 880.585 3373.06 884.312C3371.39 890.774 3369.37 897.056 3367.21 903.372C3365.28 909.062 3363.6 914.796 3361.99 920.586C3360.58 925.464 3358.92 930.256 3357.29 935.066C3355.89 939.262 3354.66 943.501 3353.44 947.75C3351.82 953.371 3350.03 958.863 3347.96 964.34C3346.89 967.304 3345.97 970.294 3345.06 973.312C3343.67 977.929 3342.15 982.467 3340.5 987C3338.88 991.471 3337.37 995.946 3336 1000.5C3334.27 1006.25 3332.27 1011.88 3330.22 1017.53C3329.05 1020.85 3328.01 1024.19 3327 1027.56C3325.34 1033.08 3323.33 1038.4 3321.22 1043.76C3320.03 1046.92 3319.02 1050.08 3318.06 1053.31C3316.36 1059.02 3314.34 1064.56 3312.21 1070.12C3310.68 1074.13 3309.26 1078.16 3307.94 1082.25C3306.64 1086.24 3305.16 1090.08 3303.5 1093.94C3301.28 1099.12 3299.63 1104.36 3298.04 1109.77C3296.67 1114.05 3294.92 1118.12 3293.15 1122.25C3292.17 1124.59 3291.33 1126.9 3290.56 1129.31C3289.27 1133.35 3287.72 1137.26 3286.13 1141.19C3283.65 1147.28 3281.39 1153.42 3279.2 1159.62C3275.77 1169.27 3271.88 1178.7 3267.88 1188.12C3265.75 1193.14 3263.8 1198.19 3261.99 1203.34C3260.34 1207.78 3258.4 1212.11 3256.51 1216.45C3254.63 1220.88 3252.92 1225.37 3251.2 1229.87C3247.77 1238.81 3243.87 1247.54 3239.95 1256.27C3237.46 1261.87 3235.23 1267.51 3233.08 1273.25C3231.89 1276.29 3230.48 1279.15 3228.96 1282.05C3227.86 1284.28 3226.96 1286.55 3226.06 1288.88C3224.71 1292.35 3223.2 1295.68 3221.5 1299C3219.85 1302.22 3218.38 1305.44 3217.06 1308.81C3214.65 1315 3211.83 1320.99 3209 1327C3208.69 1327.66 3208.38 1328.32 3208.06 1329C3206.72 1331.84 3205.39 1334.69 3204.04 1337.53C3202.36 1341.1 3200.69 1344.66 3199.04 1348.24C3198.73 1348.92 3198.42 1349.59 3198.09 1350.29C3197.24 1352.13 3196.39 1353.98 3195.54 1355.83C3194 1359 3194 1359 3192.41 1361.65C3191.09 1363.86 3190.19 1365.91 3189.31 1368.31C3186.68 1375.06 3183.35 1381.44 3180.07 1387.89C3179.02 1389.97 3177.98 1392.07 3176.95 1394.16C3173.38 1401.43 3169.62 1408.45 3165.45 1415.39C3164.19 1417.65 3163.26 1419.75 3162.44 1422.19C3161.43 1425.16 3160.12 1427.43 3158.31 1430C3155.45 1434.11 3153.2 1438.38 3151 1442.88C3150.66 1443.57 3150.32 1444.26 3149.97 1444.98C3149.47 1446.01 3149.47 1446.01 3148.95 1447.05C3145.43 1454.23 3141.59 1461.17 3137.29 1467.9C3134.68 1472.16 3132.37 1476.6 3130 1481C3127.15 1486.21 3123.98 1491.2 3120.77 1496.2C3119.23 1498.64 3117.73 1501.09 3116.25 1503.56C3115.78 1504.36 3115.3 1505.15 3114.81 1505.96C3113.77 1507.71 3112.74 1509.45 3111.7 1511.19C3110.22 1513.67 3108.74 1516.15 3107.25 1518.62C3106.77 1519.44 3106.28 1520.26 3105.78 1521.11C3105.09 1522.25 3105.09 1522.25 3104.39 1523.41C3103.98 1524.1 3103.57 1524.79 3103.14 1525.51C3102.77 1526 3102.39 1526.49 3102 1527C3101.34 1527 3100.68 1527 3100 1527C3099.77 1527.84 3099.54 1528.67 3099.31 1529.53C3097.76 1533.65 3095.62 1536.9 3093.13 1540.5C3092.69 1541.14 3092.26 1541.78 3091.81 1542.43C3090.95 1543.69 3090.09 1544.94 3089.23 1546.2C3088.42 1547.39 3087.63 1548.59 3086.86 1549.8C3085.95 1551.23 3084.98 1552.62 3084 1554C3083.34 1554 3082.68 1554 3082 1554C3081.71 1554.93 3081.42 1555.86 3081.13 1556.81C3080 1560 3080 1560 3078 1563C3077.34 1563 3076.68 1563 3076 1563C3075.77 1563.67 3075.55 1564.35 3075.31 1565.04C3073.64 1568.82 3071.41 1571.97 3069 1575.31C3068.55 1575.96 3068.1 1576.6 3067.63 1577.27C3066.48 1578.89 3065.24 1580.45 3064 1582C3063.34 1582 3062.68 1582 3062 1582C3061.91 1582.58 3061.81 1583.16 3061.71 1583.75C3060.85 1586.49 3059.58 1587.86 3057.63 1589.94C3054.95 1592.8 3053.01 1595.64 3051 1599C3049.59 1600.79 3048.15 1602.56 3046.69 1604.31C3043.36 1608.32 3040.19 1612.38 3037.19 1616.64C3036.8 1617.09 3036.41 1617.54 3036 1618C3035.34 1618 3034.68 1618 3034 1618C3033.75 1618.73 3033.5 1619.46 3033.24 1620.22C3031.9 1623.23 3030.37 1625.1 3028.13 1627.5C3025.29 1630.59 3022.61 1633.72 3020 1637C3019 1638 3018 1639 3017 1640C3016.14 1641.06 3015.29 1642.12 3014.44 1643.19C3013.63 1644.12 3012.83 1645.04 3012 1646C3011.34 1646 3010.68 1646 3010 1646C3009.75 1646.56 3009.51 1647.11 3009.25 1647.69C3006.13 1653.46 3001.28 1657.78 2996.63 1662.31C2994.52 1664.47 2992.58 1666.65 2990.63 1668.94C2987.84 1672.16 2984.9 1674.93 2981.62 1677.64C2979.26 1679.62 2977.15 1681.8 2975 1684C2968.46 1690.69 2968.46 1690.69 2964.88 1693.62C2961.25 1696.62 2958.04 1699.9 2954.81 1703.31C2951.57 1706.41 2948.13 1709.17 2944.6 1711.94C2942.23 1713.82 2939.92 1715.74 2937.6 1717.68C2934.76 1720.03 2931.85 1722.29 2928.94 1724.56C2927.74 1725.5 2926.54 1726.44 2925.34 1727.38C2924.77 1727.82 2924.21 1728.26 2923.62 1728.72C2922.13 1729.9 2920.66 1731.12 2919.19 1732.34C2917 1734 2917 1734 2915 1734C2915 1734.66 2915 1735.32 2915 1736C2913.21 1737.37 2913.21 1737.37 2910.81 1738.88C2908.21 1740.55 2905.78 1742.18 2903.38 1744.12C2901.01 1745.99 2898.55 1747.4 2895.93 1748.87C2892.75 1750.73 2889.73 1752.81 2886.69 1754.88C2880.9 1758.77 2875.03 1762.47 2869 1766C2868.18 1766.5 2867.36 1767 2866.52 1767.52C2861.63 1770.52 2856.69 1773.22 2851.53 1775.73C2849 1777 2846.53 1778.36 2844.06 1779.75C2832.71 1785.98 2820.94 1791.48 2808.79 1795.95C2806.24 1796.91 2803.78 1797.98 2801.31 1799.12C2797.64 1800.79 2793.97 1801.96 2790.09 1803.05C2787.14 1803.96 2784.25 1804.98 2781.35 1806.04C2771.94 1809.47 2762.45 1812.23 2752.75 1814.69C2751.99 1814.88 2751.23 1815.08 2750.45 1815.28C2739.14 1818.16 2727.96 1820.44 2716.35 1821.72C2713.96 1822 2711.6 1822.37 2709.23 1822.76C2698.19 1824.56 2687.16 1825.52 2676 1826.19C2675.3 1826.23 2674.6 1826.27 2673.88 1826.32C2659.68 1827.17 2645.65 1827.1 2631.44 1826.25C2630.73 1826.21 2630.02 1826.17 2629.29 1826.12C2615.75 1825.3 2602.41 1823.63 2589.02 1821.48C2586.3 1821.05 2583.58 1820.66 2580.85 1820.29C2569.18 1818.66 2557.94 1815.83 2546.59 1812.7C2544.33 1812.09 2542.07 1811.5 2539.81 1810.93C2531.64 1808.86 2523.78 1806.24 2515.87 1803.37C2512.88 1802.29 2509.88 1801.35 2506.81 1800.5C2501.54 1798.98 2496.61 1796.75 2491.6 1794.55C2487.16 1792.64 2482.66 1790.94 2478.13 1789.27C2474.31 1787.72 2470.67 1785.88 2467 1784C2465.72 1783.36 2464.43 1782.71 2463.14 1782.07C2461.15 1781.07 2459.15 1780.08 2457.16 1779.08C2453.98 1777.49 2450.8 1775.9 2447.61 1774.32C2438.67 1769.89 2430.14 1765.16 2421.75 1759.75C2419.22 1758.14 2416.65 1756.59 2414.06 1755.06C2406.14 1750.33 2398.4 1745.45 2391.54 1739.25C2389.24 1737.38 2386.7 1736.19 2384 1735C2384 1734.34 2384 1733.68 2384 1733C2383.12 1732.58 2383.12 1732.58 2382.22 1732.16C2375.4 1728.6 2369.52 1723.02 2363.61 1718.15C2361.83 1716.68 2360.01 1715.25 2358.17 1713.85C2357.45 1713.24 2356.74 1712.63 2356 1712C2356 1711.34 2356 1710.68 2356 1710C2355.28 1709.79 2354.56 1709.59 2353.81 1709.38C2350.79 1707.9 2349.41 1706.21 2347.39 1703.58C2345.88 1701.86 2344.33 1700.71 2342.44 1699.44C2339.31 1697.33 2337.31 1695 2335 1692C2333.34 1690.66 2331.67 1689.33 2330 1688C2327 1684.48 2327 1684.48 2327 1682C2326.47 1681.8 2325.93 1681.6 2325.38 1681.39C2321.99 1679.41 2319.56 1676.63 2316.94 1673.75C2316.37 1673.13 2315.8 1672.51 2315.21 1671.87C2309.88 1666.01 2304.98 1659.84 2300.18 1653.54C2298.53 1651.39 2296.86 1649.26 2295.19 1647.12C2294.12 1645.75 2293.06 1644.38 2292 1643C2291.5 1642.36 2291 1641.72 2290.49 1641.06C2286.29 1635.6 2282.65 1629.84 2279 1624C2277.84 1622.17 2276.67 1620.33 2275.5 1618.5C2274.92 1617.59 2274.35 1616.68 2273.75 1615.74C2272.59 1613.93 2271.43 1612.12 2270.25 1610.32C2262.91 1599.01 2256.92 1587 2250.96 1574.93C2250.3 1573.59 2249.62 1572.26 2248.94 1570.93C2247.06 1567.24 2245.39 1563.62 2244.06 1559.69C2242.73 1555.88 2241.23 1552.26 2239.5 1548.62C2237.19 1543.66 2235.58 1538.65 2234.04 1533.4C2232.6 1528.69 2230.88 1524.09 2229.15 1519.48C2228.06 1516.19 2227.29 1512.97 2226.58 1509.59C2225.92 1506.62 2225.15 1503.68 2224.38 1500.73C2220.89 1487.39 2217.93 1474.26 2216.32 1460.55C2215.99 1457.95 2215.62 1455.35 2215.23 1452.75C2211.83 1429.51 2210.16 1405.49 2211 1382C2211.04 1380.8 2211.08 1379.6 2211.13 1378.36C2211.89 1357.48 2214.03 1336.95 2217.1 1316.28C2217.71 1312.16 2218.24 1308.04 2218.71 1303.9C2219.71 1295.2 2221.42 1286.88 2223.44 1278.38C2223.74 1277.07 2224.04 1275.77 2224.35 1274.47C2224.94 1271.9 2225.54 1269.33 2226.14 1266.76C2226.98 1263.11 2227.76 1259.45 2228.52 1255.78C2229.86 1249.49 2231.44 1243.31 2233.19 1237.12C2233.49 1236.07 2233.78 1235.01 2234.09 1233.92C2236.84 1224.27 2239.99 1214.77 2243.22 1205.28C2244.63 1201.14 2245.94 1197 2247.19 1192.81C2248.77 1187.57 2250.66 1182.5 2252.67 1177.41C2253.82 1174.46 2254.94 1171.49 2256.03 1168.51C2258.72 1161.24 2261.57 1154.05 2264.5 1146.88C2264.86 1146.01 2265.21 1145.14 2265.58 1144.24C2270.58 1132.08 2275.82 1120.04 2281.38 1108.12C2281.8 1107.21 2281.8 1107.21 2282.23 1106.28C2286.38 1097.38 2290.62 1088.54 2295.09 1079.79C2296.04 1077.92 2296.98 1076.04 2297.91 1074.15C2305.79 1058.24 2314.11 1042.57 2322.82 1027.09C2323.6 1025.72 2324.37 1024.35 2325.14 1022.97C2331.63 1011.35 2331.63 1011.35 2334.75 1007.12C2336.43 1004.79 2337.62 1002.89 2338.83 1000.35C2341.02 995.882 2343.47 991.597 2346 987.312C2346.43 986.58 2346.85 985.847 2347.29 985.092C2349.62 981.131 2352.09 977.568 2355 974C2355.87 972.521 2356.71 971.022 2357.5 969.5C2358.9 966.9 2360.2 964.749 2362.06 962.437C2363.73 960.347 2364.7 958.691 2365.81 956.312C2368.3 951.137 2371.65 946.641 2375 942C2378.64 936.876 2382.2 931.748 2385.49 926.391C2388.83 921.095 2392.37 915.922 2395.85 910.721C2397.29 908.571 2398.71 906.41 2400.13 904.25C2402.92 900.056 2405.89 896.005 2408.87 891.941C2411.86 887.818 2414.73 883.622 2417.62 879.43C2420.63 875.077 2423.72 870.783 2426.81 866.493C2429.09 863.357 2429.09 863.357 2431 860C2431.66 860 2432.32 860 2433 860C2433.23 859.303 2433.47 858.605 2433.71 857.887C2435.25 854.454 2437.35 851.722 2439.69 848.812C2443.44 844.052 2447.02 839.228 2450.43 834.219C2452.19 831.728 2454.09 829.38 2456 827C2457.96 824.429 2459.88 821.839 2461.81 819.25C2465.69 814.065 2469.6 808.921 2473.61 803.84C2474.94 802.086 2476.13 800.294 2477.31 798.437C2477.87 797.633 2478.43 796.829 2479 796C2479.66 796 2480.32 796 2481 796C2481.37 795.196 2481.37 795.196 2481.75 794.375C2485.01 788.192 2489.36 783.06 2493.81 777.703C2495.63 775.457 2497.31 773.196 2498.94 770.812C2499.62 769.884 2500.3 768.956 2501 768C2501.66 768 2502.32 768 2503 768C2503.21 767.319 2503.41 766.639 2503.63 765.937C2505.17 762.649 2507.09 760.445 2509.49 757.762C2511.19 755.849 2511.19 755.849 2513.06 752.875C2515 750 2515 750 2517.21 747.852C2520.68 744.305 2523.59 740.463 2526.56 736.5C2528.22 734.307 2529.88 732.115 2531.54 729.926C2532.79 728.277 2534.04 726.623 2535.28 724.969C2535.85 724.319 2536.42 723.669 2537 723C2537.66 723 2538.32 723 2539 723C2539.19 722.319 2539.37 721.639 2539.56 720.937C2541.28 717.439 2543.48 715.418 2546.27 712.754C2548.58 710.411 2550.22 707.76 2552 705C2553.51 703.17 2555.06 701.387 2556.63 699.613C2558.19 697.835 2558.19 697.835 2560 695C2560.66 695 2561.32 695 2562 695C2562.21 694.478 2562.43 693.956 2562.65 693.418C2564.56 689.997 2567.1 687.245 2569.69 684.312C2573.89 679.499 2577.92 674.639 2581.7 669.477C2582.13 668.989 2582.56 668.502 2583 668C2583.66 668 2584.32 668 2585 668C2585.19 667.319 2585.37 666.639 2585.56 665.937C2587.25 662.497 2589.33 660.509 2592.07 657.883C2596.51 653.548 2600.45 648.809 2604.13 643.812C2606.51 640.569 2609.11 637.817 2612 635C2613.71 633.095 2615.38 631.161 2617.06 629.227C2619.13 626.851 2621.25 624.519 2623.38 622.187C2626.45 618.789 2629.39 615.324 2632.25 611.75C2636.39 606.631 2640.79 601.817 2645.31 597.034C2648.57 593.579 2651.69 590.054 2654.72 586.392C2656 585 2656 585 2658 584C2658.41 583.257 2658.83 582.515 2659.25 581.75C2661 579 2661 579 2663.94 576.562C2667.07 573.939 2668.77 571.387 2671 568C2672.67 566.667 2674.33 565.333 2676 564C2676.66 563.01 2677.32 562.02 2678 561C2680.08 557.875 2682.07 556.314 2685 554C2686.69 552.182 2688.29 550.303 2689.91 548.418C2692.43 545.503 2695.02 542.655 2697.63 539.812C2698.08 539.314 2698.54 538.815 2699.01 538.301C2701.93 535.117 2704.95 532.054 2708 529C2709.3 527.573 2710.6 526.135 2711.88 524.687C2720.85 514.665 2730 504.78 2739.66 495.406C2741.57 493.446 2743.34 491.458 2745.12 489.383C2749.69 484.115 2754.66 479.268 2759.63 474.375C2767.64 466.487 2767.64 466.487 2775 458C2776.65 456.313 2778.31 454.645 2780 453C2780.89 452.072 2781.77 451.144 2782.69 450.187C2785 448 2785 448 2787 448C2787.23 447.443 2787.45 446.886 2787.69 446.312C2789.38 443.338 2791.47 441.28 2794 439C2794.66 439 2795.32 439 2796 439C2796.23 438.443 2796.45 437.886 2796.69 437.312C2798.38 434.338 2800.47 432.28 2803 430C2803.66 430 2804.32 430 2805 430C2805.27 429.397 2805.53 428.793 2805.8 428.172C2807.06 425.896 2808.16 424.832 2810.19 423.25C2813.64 420.411 2816.48 417.279 2819.38 413.883C2822.32 410.467 2825.43 407.458 2828.94 404.625C2831.19 402.791 2833.03 400.866 2834.88 398.625C2837.53 395.437 2840.41 392.845 2843.58 390.176C2847.43 386.719 2851.01 382.991 2854.61 379.267C2856.04 377.809 2857.52 376.4 2859 375C2859.66 375 2860.32 375 2861 375C2861.21 374.456 2861.41 373.912 2861.63 373.352C2863.53 370.095 2866.21 367.849 2869 365.375C2873.21 361.574 2877.33 357.732 2881.31 353.687C2884.79 350.163 2888.38 346.863 2892.14 343.645C2894.62 341.456 2896.91 339.105 2899.22 336.746C2901.07 334.935 2902.98 333.247 2904.94 331.562C2907.75 329.144 2910.4 326.641 2913 324C2916.13 320.832 2919.36 317.881 2922.74 314.98C2925.53 312.534 2928.27 310.019 2931 307.5C2936.21 302.708 2941.47 297.992 2946.87 293.418C2949.48 291.2 2952.01 288.99 2954.44 286.562C2957.07 283.928 2959.83 281.513 2962.64 279.078C2964.89 277.099 2967.09 275.078 2969.29 273.041C2974.47 268.238 2979.77 263.687 2985.27 259.254C2989.12 256.079 2992.77 252.716 2996.44 249.348C3002.08 244.178 3007.81 239.279 3013.92 234.676C3016.11 232.912 3018.03 231.004 3020 229C3023.83 225.48 3027.74 222.135 3031.94 219.062C3034.82 216.948 3037.48 214.715 3040.13 212.312C3044.57 208.297 3049.22 204.611 3053.95 200.945C3059.07 196.975 3064.05 192.882 3068.88 188.562C3072.17 185.665 3075.57 183.009 3079.11 180.422C3080.92 179.059 3082.61 177.619 3084.31 176.125C3087 174 3087 174 3090 174C3090.26 173.397 3090.52 172.794 3090.79 172.173C3092.1 169.827 3093.22 168.795 3095.38 167.23C3096.38 166.491 3096.38 166.491 3097.41 165.737C3098.12 165.225 3098.83 164.714 3099.56 164.187C3101.02 163.118 3102.48 162.047 3103.94 160.977C3104.99 160.207 3104.99 160.207 3106.07 159.423C3108.44 157.68 3110.75 155.882 3113.06 154.062C3123.38 146 3123.38 146 3126 146C3126 145.34 3126 144.68 3126 144C3127.61 142.627 3127.61 142.627 3129.83 141.066C3130.63 140.5 3131.43 139.933 3132.25 139.35C3133.52 138.465 3133.52 138.465 3134.81 137.562C3136.47 136.4 3138.12 135.234 3139.77 134.066C3140.51 133.55 3141.25 133.034 3142.01 132.502C3144.01 131.07 3144.01 131.07 3145.58 129.398C3147 128 3147 128 3149.94 126.562C3152.97 125.014 3154.7 123.462 3157 121C3160 119 3160 119 3163 119C3163.33 118.01 3163.66 117.02 3164 116C3166.37 114.278 3168.72 112.684 3171.19 111.125C3176.85 107.516 3176.85 107.516 3182.11 103.367C3184.98 101.019 3187.68 99.6048 3191 98C3192.88 96.7056 3194.74 95.3715 3196.56 94C3205.91 87 3205.91 87 3209 87C3209 86.34 3209 85.68 3209 85C3209.53 84.7202 3210.07 84.4405 3210.62 84.1523C3215.73 81.4014 3220.47 78.3701 3225.15 74.9414C3229.32 72.1004 3233.67 69.5751 3238 67C3239.66 66.0014 3241.31 65.0014 3242.97 64C3244.62 63 3246.28 62 3247.94 61C3249.16 60.2575 3249.16 60.2575 3250.41 59.5C3256.52 55.8227 3262.73 52.3864 3269 49C3270.78 48.025 3272.55 47.0484 3274.33 46.0703C3289.32 37.8255 3304.42 30.0801 3320 23C3320.89 22.581 3321.77 22.1621 3322.69 21.7304C3335.44 15.754 3348.61 11.3966 3362.06 7.31246C3363.93 6.74156 3363.93 6.74156 3365.83 6.15914C3380.13 1.88539 3393.35 -0.52663 3408.23 -0.446086Z" fill="#D1DD2B"/>
<path d="M2680 3189C2681.4 3189.88 2681.4 3189.88 2682.83 3190.78C2686.56 3193.4 2689.81 3196.31 2693.12 3199.44C2694.1 3200.36 2694.1 3200.36 2695.1 3201.29C2704.14 3209.88 2712.59 3218.95 2720 3229C2720.74 3229.96 2720.74 3229.96 2721.49 3230.93C2723.15 3233.21 2724.55 3235.58 2726 3238C2727.05 3239.51 2728.11 3241.01 2729.19 3242.5C2734.96 3250.7 2740.13 3259.27 2744.91 3268.08C2745.89 3269.82 2747 3271.48 2748.12 3273.12C2749.8 3275.7 2750.94 3278.18 2752.08 3281.02C2753.21 3283.45 2754.58 3285.66 2756 3287.94C2758.17 3291.48 2759.77 3294.8 2761.11 3298.71C2762.5 3302.3 2764.29 3305.67 2766.02 3309.09C2772.3 3321.49 2778.24 3333.93 2783 3347C2785.52 3353.74 2788.16 3360.41 2791 3367.02C2794.11 3374.27 2796.89 3381.41 2799.06 3389.01C2800.36 3393.16 2802.07 3397.09 2803.85 3401.05C2804.98 3403.95 2805.71 3406.82 2806.42 3409.84C2807.47 3413.75 2808.98 3417.48 2810.44 3421.25C2812.76 3427.4 2814.74 3433.44 2816.19 3439.86C2817.23 3443.92 2818.58 3447.85 2819.94 3451.81C2822.22 3458.5 2824.18 3465.2 2825.94 3472.05C2827.13 3476.62 2828.55 3481.11 2829.94 3485.62C2832.61 3494.37 2834.78 3503.18 2836.84 3512.09C2837.84 3516.38 2838.95 3520.63 2840.12 3524.87C2841.72 3530.74 2842.94 3536.62 2844.08 3542.59C2845.21 3548.23 2846.63 3553.8 2848 3559.37C2849.85 3566.95 2851.56 3574.48 2852.81 3582.18C2854.2 3590.56 2856.03 3598.85 2857.84 3607.15C2859.29 3613.94 2860.39 3620.68 2861.19 3627.57C2861.85 3633.14 2862.72 3638.66 2863.65 3644.2C2863.8 3645.08 2863.95 3645.96 2864.1 3646.87C2864.41 3648.69 2864.72 3650.5 2865.03 3652.32C2867.46 3666.78 2869.7 3681.12 2870.73 3695.75C2871.07 3699.9 2871.5 3704.04 2871.92 3708.19C2877.62 3763.51 2880.2 3818.81 2871.46 3873.98C2871.06 3876.59 2870.71 3879.19 2870.39 3881.81C2869.04 3892.35 2866.44 3902.51 2863.69 3912.75C2863.5 3913.44 2863.32 3914.14 2863.13 3914.85C2860.76 3923.68 2857.93 3932.13 2854.42 3940.57C2852.94 3944.15 2851.56 3947.75 2850.19 3951.37C2845.29 3963.79 2838.61 3975.26 2831.56 3986.56C2830.78 3987.82 2830.78 3987.82 2829.98 3989.11C2829.25 3990.26 2829.25 3990.26 2828.5 3991.44C2828.07 3992.13 2827.63 3992.82 2827.18 3993.53C2826.79 3994.01 2826.4 3994.5 2826 3995C2825.34 3995 2824.68 3995 2824 3995C2823.81 3995.85 2823.63 3996.69 2823.44 3997.56C2821.78 4001.51 2819.75 4003.45 2816.67 4006.32C2814.67 4008.33 2813.43 4010.57 2812 4013C2811.01 4013.33 2810.02 4013.66 2809 4014C2808.71 4014.58 2808.42 4015.15 2808.12 4015.75C2806.94 4018.12 2805.51 4019.64 2803.61 4021.46C2801.59 4023.39 2799.64 4025.39 2797.69 4027.37C2783.93 4041.11 2767.48 4053.46 2750 4062C2749 4062.51 2748.01 4063.02 2746.98 4063.54C2743.34 4065.4 2739.67 4067.21 2736 4069C2735.35 4069.32 2734.71 4069.63 2734.05 4069.96C2714.54 4079.42 2693.86 4085.5 2672.69 4089.87C2672.02 4090.01 2671.35 4090.15 2670.66 4090.3C2665.79 4091.3 2660.9 4092.18 2656 4093C2655.21 4093.14 2654.41 4093.28 2653.6 4093.42C2636.49 4096.32 2619.44 4096.5 2602.15 4096.45C2599.02 4096.44 2595.89 4096.44 2592.76 4096.47C2566.43 4096.66 2541.2 4094.5 2515.38 4088.93C2512.56 4088.32 2509.74 4087.77 2506.89 4087.29C2497.85 4085.78 2489.36 4083.39 2480.67 4080.5C2477.36 4079.41 2474.03 4078.46 2470.66 4077.58C2464.7 4075.98 2458.96 4073.93 2453.19 4071.75C2451.62 4071.16 2451.62 4071.16 2450.01 4070.56C2443.09 4067.91 2436.44 4064.99 2429.9 4061.51C2426.93 4059.92 2426.93 4059.92 2423.44 4058.49C2420.44 4057.19 2417.81 4055.79 2415.06 4054.06C2412.17 4052.29 2409.32 4050.62 2406.25 4049.19C2396.93 4044.66 2388.1 4038.42 2380 4032C2379.2 4031.37 2378.4 4030.75 2377.58 4030.1C2372.87 4026.38 2368.28 4022.57 2363.8 4018.58C2362.19 4017.17 2360.55 4015.83 2358.87 4014.5C2356.07 4012.06 2353.79 4009.53 2351.43 4006.68C2350.21 4005.25 2348.89 4003.89 2347.56 4002.56C2342.72 3997.73 2338.5 3992.88 2335 3987C2334.13 3986.17 2333.27 3985.35 2332.37 3984.5C2329.87 3981.86 2329.3 3980.56 2329 3977C2328.34 3977 2327.68 3977 2327 3977C2311.29 3955.34 2301.22 3929.3 2294.67 3903.6C2294.12 3901.48 2293.53 3899.36 2292.94 3897.25C2291.49 3891.41 2290.91 3885.4 2290.19 3879.44C2289.94 3877.33 2289.67 3875.23 2289.41 3873.13C2286.09 3846.38 2286.2 3819.79 2289 3793C2289.18 3791.12 2289.18 3791.12 2289.37 3789.21C2291.3 3769.8 2294.69 3751.13 2299.26 3732.18C2300.17 3728.24 2300.89 3724.3 2301.56 3720.31C2302.77 3713.51 2304.69 3707.02 2306.73 3700.43C2308.35 3695.21 2309.8 3690 2311.06 3684.69C2312.64 3678.13 2314.66 3671.86 2316.85 3665.5C2317.86 3662.42 2318.66 3659.4 2319.37 3656.25C2320.87 3649.92 2323.15 3643.93 2325.45 3637.86C2326.96 3633.85 2328.41 3629.88 2329.56 3625.75C2330.93 3620.91 2332.83 3616.32 2334.73 3611.68C2336.34 3607.74 2337.77 3603.8 2339.06 3599.75C2340.64 3594.85 2342.66 3590.29 2344.85 3585.64C2345.93 3583.15 2346.72 3580.74 2347.44 3578.12C2348.87 3572.99 2351.06 3568.35 2353.4 3563.57C2354.7 3560.66 2355.81 3557.8 2356.88 3554.81C2358.98 3548.92 2361.42 3543.22 2363.94 3537.5C2364.35 3536.54 2364.77 3535.59 2365.2 3534.61C2368.07 3528.04 2371.02 3521.51 2374 3515C2374.44 3514.03 2374.88 3513.07 2375.34 3512.07C2390.41 3479.2 2406.01 3446.66 2423.71 3415.11C2425.8 3411.37 2427.81 3407.6 2429.81 3403.81C2431.62 3400.42 2433.45 3397.21 2435.75 3394.12C2438.1 3391.09 2438.1 3391.09 2439.44 3387.62C2441.09 3383.79 2443.16 3380.69 2445.52 3377.26C2446.88 3375.18 2447.99 3373.12 2449.06 3370.87C2450.64 3367.57 2452.53 3364.78 2454.71 3361.86C2456.16 3359.77 2457.35 3357.61 2458.56 3355.37C2459.94 3352.82 2461.23 3350.72 2463.06 3348.44C2464.77 3346.29 2465.78 3344.51 2466.94 3342.06C2468.78 3338.19 2471.22 3335.27 2474 3332C2475.07 3330.28 2476.05 3328.52 2477.03 3326.75C2478.54 3324.03 2480.16 3321.51 2482 3319C2482.66 3319 2483.32 3319 2484 3319C2484.08 3318.28 2484.16 3317.56 2484.25 3316.82C2485.16 3313.37 2486.69 3311.57 2489 3308.87C2492.09 3305.28 2492.09 3305.28 2494 3301C2494.66 3301 2495.32 3301 2496 3301C2496.27 3300.26 2496.53 3299.51 2496.81 3298.75C2497.95 3296.11 2499.09 3294.14 2501 3292C2501.66 3292 2502.32 3292 2503 3292C2503.14 3291.13 2503.14 3291.13 2503.29 3290.25C2504.15 3287.51 2505.42 3286.14 2507.37 3284.06C2510.01 3281.17 2512.01 3278.37 2514 3275C2515.36 3273.32 2516.78 3271.7 2518.21 3270.07C2520.3 3267.66 2522.3 3265.17 2524.31 3262.69C2528.71 3257.3 2533.31 3252.13 2538 3247C2539.52 3245.31 2541.04 3243.63 2542.56 3241.94C2543.67 3240.71 2543.67 3240.71 2544.8 3239.45C2546.96 3237.04 2549.11 3234.62 2551.25 3232.19C2563.8 3218.09 2578.97 3205.02 2595 3195C2595.93 3194.34 2596.85 3193.68 2597.81 3193C2602.68 3189.95 2607.84 3187.52 2613 3185C2613.96 3184.49 2614.93 3183.98 2615.92 3183.45C2636.83 3173.57 2661.17 3176 2680 3189Z" fill="#D1DD2B"/>
</svg>
